<?xml version="1.0" encoding="UTF-8"?>
<svg version="1.1" xmlns="http://www.w3.org/2000/svg" width="225" height="180">
<path d="M0 0 C2.51443703 0.59105325 2.51443703 0.59105325 5.5859375 0.4296875 C8.40234375 0.48046875 8.40234375 0.48046875 10.40234375 2.48046875 C10.61504017 10.6743451 9.8830332 19.00343216 6.40234375 26.48046875 C4.296875 27.20703125 4.296875 27.20703125 2.40234375 27.48046875 C2.65371094 26.41119141 2.65371094 26.41119141 2.91015625 25.3203125 C4.19149447 19.29477897 4.70498011 15.23705966 2.40234375 9.48046875 C-2.24883043 8.27388175 -2.24883043 8.27388175 -6.53515625 9.73046875 C-7.85714532 11.5666471 -7.85714532 11.5666471 -7.59765625 14.48046875 C-8.25765625 14.48046875 -8.91765625 14.48046875 -9.59765625 14.48046875 C-10.25765625 19.76046875 -10.91765625 25.04046875 -11.59765625 30.48046875 C-12.77199219 30.62742188 -13.94632812 30.774375 -15.15625 30.92578125 C-31.39576716 33.11778472 -45.20890015 37.11341896 -58.7421875 46.52734375 C-60.99760449 48.07003663 -63.12020686 49.35271939 -65.59765625 50.48046875 C-65.41976562 49.06894531 -65.41976562 49.06894531 -65.23828125 47.62890625 C-64.06799191 39.9194769 -64.06799191 39.9194769 -66.22265625 32.73046875 C-68.76770231 30.31937248 -70.17106396 29.19766248 -73.59765625 28.48046875 C-77.1626788 28.78779828 -80.20599117 29.34991372 -83.59765625 30.48046875 C-83.59765625 31.14046875 -83.59765625 31.80046875 -83.59765625 32.48046875 C-84.93098958 33.81380208 -86.26432292 35.14713542 -87.59765625 36.48046875 C-91.21803355 42.19685396 -90.72797513 48.9645247 -90.59765625 55.48046875 C-91.58765625 55.48046875 -92.57765625 55.48046875 -93.59765625 55.48046875 C-95.25879528 47.1747736 -95.40670944 39.21171532 -91.59765625 31.48046875 C-87.7378421 27.03061932 -83.02182413 22.8787481 -77.01171875 22.1796875 C-69.73054538 22.14909433 -65.43649107 22.9642288 -59.84765625 27.91796875 C-57.9363086 30.09478135 -56.68036642 31.82290742 -55.59765625 34.48046875 C-50.04320748 33.87879795 -45.16611893 32.46256805 -39.91015625 30.60546875 C-32.87020236 28.18154554 -25.86010619 26.15641874 -18.59765625 24.48046875 C-17.93765625 21.18046875 -17.27765625 17.88046875 -16.59765625 14.48046875 C-17.71785156 14.92519531 -18.83804688 15.36992188 -19.9921875 15.828125 C-21.46465345 16.40022961 -22.93732028 16.9718174 -24.41015625 17.54296875 C-25.51713867 17.98479492 -25.51713867 17.98479492 -26.64648438 18.43554688 C-32.2578125 20.59375 -32.2578125 20.59375 -35.59765625 19.48046875 C-35.26765625 18.82046875 -34.93765625 18.16046875 -34.59765625 17.48046875 C-37.91133455 18.08288933 -40.96950755 18.92450413 -44.14453125 20.03515625 C-50.09202642 21.846699 -55.67865084 21.77547885 -61.84765625 21.60546875 C-64.04942627 21.57301102 -66.25125554 21.54434289 -68.453125 21.51953125 C-70.0316626 21.50067871 -70.0316626 21.50067871 -71.64208984 21.48144531 C-77.31904398 21.47956956 -82.95004561 21.91469738 -88.59765625 22.48046875 C-88.59765625 23.14046875 -88.59765625 23.80046875 -88.59765625 24.48046875 C-89.31566406 24.66480469 -90.03367188 24.84914062 -90.7734375 25.0390625 C-101.29430364 27.98700133 -110.83581407 32.63906615 -120.59765625 37.48046875 C-116.11177555 38.68091421 -116.11177555 38.68091421 -111.70751953 37.62548828 C-109.78144438 36.34397183 -107.96936412 34.98459153 -106.16015625 33.54296875 C-105.52400391 33.06150391 -104.88785156 32.58003906 -104.23242188 32.08398438 C-102.67393213 30.90046961 -101.13383951 29.69279645 -99.59765625 28.48046875 C-99.59765625 29.47046875 -99.59765625 30.46046875 -99.59765625 31.48046875 C-100.58765625 31.81046875 -101.57765625 32.14046875 -102.59765625 32.48046875 C-102.92765625 33.47046875 -103.25765625 34.46046875 -103.59765625 35.48046875 C-105.66015625 36.16796875 -105.66015625 36.16796875 -107.59765625 36.48046875 C-107.59765625 37.14046875 -107.59765625 37.80046875 -107.59765625 38.48046875 C-109.74144672 40.83820165 -111.48666659 42.3099844 -114.69775391 42.80273438 C-117.11340394 42.87373816 -119.49559461 42.82956678 -121.91015625 42.73046875 C-123.1640918 42.70339844 -123.1640918 42.70339844 -124.44335938 42.67578125 C-126.49528853 42.62888001 -128.54662381 42.55714286 -130.59765625 42.48046875 C-130.26765625 44.13046875 -129.93765625 45.78046875 -129.59765625 47.48046875 C-134.34765625 48.48046875 -134.34765625 48.48046875 -136.59765625 48.48046875 C-137.09265625 46.99546875 -137.09265625 46.99546875 -137.59765625 45.48046875 C-138.25765625 44.82046875 -138.91765625 44.16046875 -139.59765625 43.48046875 C-139.59765625 42.49046875 -139.59765625 41.50046875 -139.59765625 40.48046875 C-139.92765625 39.82046875 -140.25765625 39.16046875 -140.59765625 38.48046875 C-140.31523742 36.14042705 -139.98514838 33.80542152 -139.59765625 31.48046875 C-138.11265625 30.98546875 -138.11265625 30.98546875 -136.59765625 30.48046875 C-135.27284079 28.08517206 -135.27284079 28.08517206 -134.59765625 25.48046875 C-134.92765625 24.82046875 -135.25765625 24.16046875 -135.59765625 23.48046875 C-134.8203125 21.75390625 -134.8203125 21.75390625 -133.66015625 19.85546875 C-132.63921875 18.18484375 -132.63921875 18.18484375 -131.59765625 16.48046875 C-130.93765625 16.48046875 -130.27765625 16.48046875 -129.59765625 16.48046875 C-129.59765625 15.82046875 -129.59765625 15.16046875 -129.59765625 14.48046875 C-127.90498202 13.4987177 -126.21010911 12.52054645 -124.50390625 11.5625 C-122.9737939 10.69397311 -121.46863556 9.78155118 -119.97265625 8.85546875 C-113.31759829 6.14414884 -105.63912382 4.64470439 -98.59765625 6.48046875 C-100.59765625 9.48046875 -100.59765625 9.48046875 -103.59765625 11.48046875 C-102.52515625 11.95484375 -101.45265625 12.42921875 -100.34765625 12.91796875 C-99.44273438 13.31822266 -99.44273438 13.31822266 -98.51953125 13.7265625 C-93.42818605 15.72377718 -88.56318764 15.69769828 -83.16015625 15.73046875 C-82.31388672 15.75109375 -81.46761719 15.77171875 -80.59570312 15.79296875 C-75.74380555 15.82336435 -72.54700517 15.61559737 -68.59765625 12.48046875 C-67.93765625 11.82046875 -67.27765625 11.16046875 -66.59765625 10.48046875 C-62.14648596 6.47558994 -57.51573094 2.89301037 -52.59765625 -0.51953125 C-66.85360441 -3.9830154 -77.94230405 -2.855883 -90.72265625 4.85546875 C-91.67140625 5.39171875 -92.62015625 5.92796875 -93.59765625 6.48046875 C-94.58765625 6.15046875 -95.57765625 5.82046875 -96.59765625 5.48046875 C-92.99814938 2.29950919 -90.18284113 0.04614164 -85.59765625 -1.51953125 C-84.62828125 -1.99390625 -83.65890625 -2.46828125 -82.66015625 -2.95703125 C-56.58875631 -14.17114869 -26.03999405 -7.26230959 0 0 Z M-60.4140625 11.19921875 C-62.89638811 13.96649242 -62.89638811 13.96649242 -63.59765625 17.48046875 C-51.55059961 18.2782337 -42.28202874 16.35023907 -31.09765625 11.98046875 C-29.67797759 11.44812985 -28.25740462 10.91816972 -26.8359375 10.390625 C-23.4124838 9.11434906 -20.00206964 7.80683026 -16.59765625 6.48046875 C-16.10265625 6.97546875 -16.10265625 6.97546875 -15.59765625 7.48046875 C-17.57765625 8.14046875 -19.55765625 8.80046875 -21.59765625 9.48046875 C-21.59765625 9.81046875 -21.59765625 10.14046875 -21.59765625 10.48046875 C-16.70975459 10.36332949 -13.52445884 10.21418746 -9.59765625 7.10546875 C-7.45217369 4.58303021 -7.45217369 4.58303021 -6.59765625 1.48046875 C-26.01475391 -4.82018131 -45.03976971 -3.34849916 -60.4140625 11.19921875 Z M-33.59765625 14.48046875 C-32.11265625 15.47046875 -32.11265625 15.47046875 -30.59765625 16.48046875 C-28.61765625 15.49046875 -26.63765625 14.50046875 -24.59765625 13.48046875 C-24.59765625 12.82046875 -24.59765625 12.16046875 -24.59765625 11.48046875 C-27.90121171 11.48046875 -30.61873874 13.15650541 -33.59765625 14.48046875 Z M-110.59765625 12.48046875 C-111.25765625 13.14046875 -111.91765625 13.80046875 -112.59765625 14.48046875 C-111.11265625 15.47046875 -111.11265625 15.47046875 -109.59765625 16.48046875 C-108.60765625 16.15046875 -107.61765625 15.82046875 -106.59765625 15.48046875 C-107.25765625 15.48046875 -107.91765625 15.48046875 -108.59765625 15.48046875 C-108.92765625 14.49046875 -109.25765625 13.50046875 -109.59765625 12.48046875 C-109.92765625 12.48046875 -110.25765625 12.48046875 -110.59765625 12.48046875 Z M-114.59765625 13.48046875 C-115.25765625 14.14046875 -115.91765625 14.80046875 -116.59765625 15.48046875 C-115.60765625 15.48046875 -114.61765625 15.48046875 -113.59765625 15.48046875 C-113.92765625 14.82046875 -114.25765625 14.16046875 -114.59765625 13.48046875 Z M-118.59765625 15.48046875 C-121.2215276 16.87139767 -121.2215276 16.87139767 -123.59765625 18.48046875 C-122.60765625 18.97546875 -122.60765625 18.97546875 -121.59765625 19.48046875 C-118.9737849 18.08953983 -118.9737849 18.08953983 -116.59765625 16.48046875 C-117.25765625 16.15046875 -117.91765625 15.82046875 -118.59765625 15.48046875 Z M-106.59765625 16.48046875 C-106.59765625 17.14046875 -106.59765625 17.80046875 -106.59765625 18.48046875 C-101.97568319 20.69901582 -98.82941462 21.86328034 -93.59765625 21.48046875 C-96.45350398 19.57657026 -98.52883245 18.78584698 -101.78515625 17.85546875 C-102.68621094 17.59507813 -103.58726563 17.3346875 -104.515625 17.06640625 C-105.20269531 16.87304688 -105.88976562 16.6796875 -106.59765625 16.48046875 Z " fill="#642526" transform="translate(177.59765625,65.51953125)"/>
<path d="M0 0 C-3.28990399 4.02099376 -7.43525992 4.8110906 -12.4296875 5.4140625 C-14.13511719 5.51847656 -14.13511719 5.51847656 -15.875 5.625 C-17.02742188 5.69976562 -18.17984375 5.77453125 -19.3671875 5.8515625 C-20.23601562 5.90054688 -21.10484375 5.94953125 -22 6 C-22 6.99 -22 7.98 -22 9 C-24.94180765 10.61018109 -27.65502446 11.51482011 -30.9375 12.1875 C-31.77152344 12.36667969 -32.60554688 12.54585937 -33.46484375 12.73046875 C-36.21160365 13.02249715 -38.3345358 12.67232639 -41 12 C-41 10.35 -41 8.7 -41 7 C-40.195625 6.79375 -39.39125 6.5875 -38.5625 6.375 C-37.716875 5.92125 -36.87125 5.4675 -36 5 C-35.10169161 1.94727535 -35.10169161 1.94727535 -35 -1 C-33.68 -1.33 -32.36 -1.66 -31 -2 C-31 -2.66 -31 -3.32 -31 -4 C-19.9898053 -9.40122759 -10.53887781 -4.81882371 0 0 Z " fill="#730D0C" transform="translate(85,89)"/>
<path d="M0 0 C4.23868351 2.92671004 7.65428175 5.97528247 9.625 10.8125 C10.615 10.8125 11.605 10.8125 12.625 10.8125 C12.625 11.4725 12.625 12.1325 12.625 12.8125 C11.305 13.1425 9.985 13.4725 8.625 13.8125 C8.625 13.1525 8.625 12.4925 8.625 11.8125 C7.965 11.8125 7.305 11.8125 6.625 11.8125 C5.635 10.8225 4.645 9.8325 3.625 8.8125 C3.625 12.1125 3.625 15.4125 3.625 18.8125 C4.945 18.8125 6.265 18.8125 7.625 18.8125 C7.625 18.1525 7.625 17.4925 7.625 16.8125 C10.925 16.1525 14.225 15.4925 17.625 14.8125 C14.88953409 17.54796591 12.4391373 19.33224821 9.1875 21.375 C8.24003906 21.97441406 7.29257813 22.57382813 6.31640625 23.19140625 C4.11968445 24.51454057 1.93898814 25.71294535 -0.375 26.8125 C-0.25640625 25.87148437 -0.1378125 24.93046875 -0.015625 23.9609375 C1.15466434 16.25150815 1.15466434 16.25150815 -1 9.0625 C-3.54504606 6.65140373 -4.94840771 5.52969373 -8.375 4.8125 C-11.94002255 5.11982953 -14.98333492 5.68194497 -18.375 6.8125 C-18.375 7.4725 -18.375 8.1325 -18.375 8.8125 C-19.70833333 10.14583333 -21.04166667 11.47916667 -22.375 12.8125 C-25.9953773 18.52888521 -25.50531888 25.29655595 -25.375 31.8125 C-26.365 31.8125 -27.355 31.8125 -28.375 31.8125 C-30.03613903 23.50680485 -30.18405319 15.54374657 -26.375 7.8125 C-19.19308625 -0.46728591 -10.65124885 -3.74766163 0 0 Z " fill="#7D4A4B" transform="translate(112.375,89.1875)"/>
<path d="M0 0 C0.66 0.33 1.32 0.66 2 1 C2 1.66 2 2.32 2 3 C2.31802943 4.66965451 2.64984951 6.33678518 3 8 C1.02 8.66 -0.96 9.32 -3 10 C-3 11.65 -3 13.3 -3 15 C2.26334004 15.33595787 6.14175859 14.49290902 11.08203125 12.65625 C13 12 13 12 15 12 C15 11.01 15 10.02 15 9 C18.3 8.67 21.6 8.34 25 8 C21.58905579 10.55820816 18.54870905 12.32943579 14.75 14.1875 C13.13351563 14.98220703 13.13351563 14.98220703 11.484375 15.79296875 C10.66453125 16.19128906 9.8446875 16.58960937 9 17 C13.4858807 18.20044546 13.4858807 18.20044546 17.89013672 17.14501953 C19.81621187 15.86350308 21.62829213 14.50412278 23.4375 13.0625 C24.07365234 12.58103516 24.70980469 12.09957031 25.36523438 11.60351562 C26.92372412 10.42000086 28.46381674 9.2123277 30 8 C30 8.99 30 9.98 30 11 C29.01 11.33 28.02 11.66 27 12 C26.67 12.99 26.34 13.98 26 15 C23.9375 15.6875 23.9375 15.6875 22 16 C22 16.66 22 17.32 22 18 C19.85620953 20.3577329 18.11098966 21.82951565 14.89990234 22.32226562 C12.48425231 22.39326941 10.10206164 22.34909803 7.6875 22.25 C6.85154297 22.23195313 6.01558594 22.21390625 5.15429688 22.1953125 C3.10236772 22.14841126 1.05103244 22.07667411 -1 22 C-0.67 23.65 -0.34 25.3 0 27 C-4.75 28 -4.75 28 -7 28 C-7.33 27.01 -7.66 26.02 -8 25 C-8.66 24.34 -9.32 23.68 -10 23 C-10 22.01 -10 21.02 -10 20 C-10.33 19.34 -10.66 18.68 -11 18 C-10.71758117 15.6599583 -10.38749213 13.32495277 -10 11 C-9.01 10.67 -8.02 10.34 -7 10 C-6.31379969 8.67661368 -5.65213539 7.34050052 -5 6 C-3.40283189 3.93277924 -1.70863672 1.97842146 0 0 Z " fill="#6D1516" transform="translate(48,86)"/>
<path d="M0 0 C-2 3 -2 3 -5 5 C-3.9275 5.45375 -2.855 5.9075 -1.75 6.375 C0.88062317 7.50088537 3.46000396 8.67920206 6 10 C5.01 10.66 4.02 11.32 3 12 C5.73249341 12.75277515 8.28100683 13.16641703 11.109375 13.31640625 C11.86347656 13.35830078 12.61757812 13.40019531 13.39453125 13.44335938 C14.56048828 13.50233398 14.56048828 13.50233398 15.75 13.5625 C16.93916016 13.62727539 16.93916016 13.62727539 18.15234375 13.69335938 C20.10137815 13.79902991 22.05066748 13.89997966 24 14 C24 14.33 24 14.66 24 15 C19.38 15.33 14.76 15.66 10 16 C10 16.66 10 17.32 10 18 C6.26512223 17.5020163 4.18762365 17.12508244 1 15 C1.33 14.67 1.66 14.34 2 14 C-4.10531243 11.42497027 -7.76839184 10.48083925 -14 13 C-14.33 12.34 -14.66 11.68 -15 11 C-18.30204285 9.80759564 -19.59064198 9.80896626 -22.8125 11.3125 C-23.534375 11.869375 -24.25625 12.42625 -25 13 C-25 13.66 -25 14.32 -25 15 C-26.98 15.66 -28.96 16.32 -31 17 C-30.67 16.34 -30.34 15.68 -30 15 C-30.99 15.33 -31.98 15.66 -33 16 C-33.33 16.99 -33.66 17.98 -34 19 C-34.99 19 -35.98 19 -37 19 C-35.80100302 15.9168649 -34.52299523 12.93720508 -33 10 C-32.34 10 -31.68 10 -31 10 C-31 9.34 -31 8.68 -31 8 C-29.30830301 7.01881575 -27.61456118 6.0409708 -25.91015625 5.08203125 C-24.36271595 4.20546486 -22.83438995 3.29521253 -21.3125 2.375 C-14.38828174 -0.4992038 -7.35250801 -1.5317725 0 0 Z M-12 6 C-12.66 6.66 -13.32 7.32 -14 8 C-12.515 8.99 -12.515 8.99 -11 10 C-10.01 9.67 -9.02 9.34 -8 9 C-8.66 9 -9.32 9 -10 9 C-10.33 8.01 -10.66 7.02 -11 6 C-11.33 6 -11.66 6 -12 6 Z M-16 7 C-16.66 7.66 -17.32 8.32 -18 9 C-17.01 9 -16.02 9 -15 9 C-15.33 8.34 -15.66 7.68 -16 7 Z " fill="#7A3F43" transform="translate(79,72)"/>
<path d="M0 0 C-0.14148989 1.6045556 -0.28835686 3.20863767 -0.4375 4.8125 C-0.51871094 5.70582031 -0.59992188 6.59914063 -0.68359375 7.51953125 C-1 10 -1 10 -2 13 C-6.94487426 16.03072939 -13.78304017 15.71306555 -19.30859375 14.48828125 C-20.14583984 14.24658203 -20.14583984 14.24658203 -21 14 C-21.33 12.68 -21.66 11.36 -22 10 C-22.66 10 -23.32 10 -24 10 C-24 9.34 -24 8.68 -24 8 C-23.0821875 7.67386719 -22.164375 7.34773438 -21.21875 7.01171875 C-19.9915625 6.57472656 -18.764375 6.13773437 -17.5 5.6875 C-16.8615918 5.4603833 -16.22318359 5.2332666 -15.56542969 4.99926758 C-12.11138979 3.76687105 -8.67215819 2.50566464 -5.25 1.1875 C-2 0 -2 0 0 0 Z " fill="#711F1D" transform="translate(80,105)"/>
<path d="M0 0 C-0.825 0.598125 -1.65 1.19625 -2.5 1.8125 C-3.325 2.534375 -4.15 3.25625 -5 4 C-5 4.99 -5 5.98 -5 7 C-4.34 7.33 -3.68 7.66 -3 8 C-5.60014527 9.03227862 -8.20426369 10.05105152 -10.8125 11.0625 C-11.55048828 11.35705078 -12.28847656 11.65160156 -13.04882812 11.95507812 C-18.66015625 14.11328125 -18.66015625 14.11328125 -22 13 C-21.67 12.34 -21.34 11.68 -21 11 C-24.24528854 11.58437888 -27.16669673 12.41457954 -30.25 13.5625 C-37.63334161 15.87400208 -45.35549391 15.23944509 -53 15 C-53 14.67 -53 14.34 -53 14 C-48.05 13.67 -43.1 13.34 -38 13 C-42.62 13 -47.24 13 -52 13 C-51.67 11.35 -51.34 9.7 -51 8 C-50.34 7.67 -49.68 7.34 -49 7 C-49.33 8.32 -49.66 9.64 -50 11 C-38.20086116 10.9153478 -28.62808708 8.66842552 -17.6875 4.375 C-15.61743725 3.5791003 -13.54531608 2.78971256 -11.46894836 2.01040649 C-9.61839508 1.31360507 -7.77512063 0.59756076 -5.93237305 -0.11962891 C-3 -1 -3 -1 0 0 Z M-20 8 C-18.515 8.99 -18.515 8.99 -17 10 C-15.02 9.01 -13.04 8.02 -11 7 C-11 6.34 -11 5.68 -11 5 C-14.30355546 5 -17.02108249 6.67603666 -20 8 Z " fill="#876C6D" transform="translate(164,72)"/>
<path d="M0 0 C2.475 0.99 2.475 0.99 5 2 C4.01 4.31 3.02 6.62 2 9 C2.99 8.67 3.98 8.34 5 8 C7.06145107 7.931009 9.12501401 7.91532273 11.1875 7.9375 C12.81751953 7.95103516 12.81751953 7.95103516 14.48046875 7.96484375 C15.31191406 7.97644531 16.14335938 7.98804687 17 8 C16.67 8.66 16.34 9.32 16 10 C10.43157229 10.04963288 4.86327489 10.08582963 -0.70532227 10.10986328 C-2.59759771 10.11988815 -4.48985778 10.13351155 -6.38208008 10.15087891 C-9.1102275 10.17528222 -11.83816915 10.18651845 -14.56640625 10.1953125 C-15.40522842 10.20563507 -16.2440506 10.21595764 -17.10829163 10.22659302 C-22.1298712 10.22754087 -26.23893583 9.61591021 -31 8 C-27.76912703 5.84608468 -26.80569243 5.74408027 -23.0703125 5.69140625 C-22.10996094 5.66626953 -21.14960937 5.64113281 -20.16015625 5.61523438 C-18.14459322 5.58021494 -16.12896157 5.54893527 -14.11328125 5.52148438 C-7.04230115 5.41878969 -7.04230115 5.41878969 -1 2 C-0.67 1.34 -0.34 0.68 0 0 Z " fill="#621B20" transform="translate(110,76)"/>
<path d="M0 0 C0 0.66 0 1.32 0 2 C0.99 2.33 1.98 2.66 3 3 C2.44570312 3.19335938 1.89140625 3.38671875 1.3203125 3.5859375 C0.59585938 3.84632812 -0.12859375 4.10671875 -0.875 4.375 C-1.59429687 4.63023438 -2.31359375 4.88546875 -3.0546875 5.1484375 C-5.18157994 5.93877783 -5.18157994 5.93877783 -7 8 C-8.42106102 8.82080931 -9.86112623 9.60906493 -11.3125 10.375 C-14.84657719 12.29594196 -17.95440252 14.34738284 -21 17 C-21.99 16.01 -22.98 15.02 -24 14 C-19.94510767 9.72916666 -16.03681497 6.07122864 -11 3 C-14.3 2.34 -17.6 1.68 -21 1 C-21 0.67 -21 0.34 -21 0 C-13.87028851 -1.25818438 -7.18050184 -0.71148265 0 0 Z " fill="#7A3C3E" transform="translate(136,62)"/>
<path d="M0 0 C7.75 -0.125 7.75 -0.125 10 1 C10 1.99 10 2.98 10 4 C10.66 3.67 11.32 3.34 12 3 C14.9375 2.625 14.9375 2.625 18 3 C19.6875 5.5 19.6875 5.5 21 8 C21.99 8 22.98 8 24 8 C24 8.66 24 9.32 24 10 C22.68 10.33 21.36 10.66 20 11 C20 10.34 20 9.68 20 9 C19.34 9 18.68 9 18 9 C17.01 8.01 16.02 7.02 15 6 C15 9.3 15 12.6 15 16 C16.32 16 17.64 16 19 16 C19 15.34 19 14.68 19 14 C22.3 13.34 25.6 12.68 29 12 C26.26453409 14.73546591 23.8141373 16.51974821 20.5625 18.5625 C19.14130859 19.46162109 19.14130859 19.46162109 17.69140625 20.37890625 C15.49468445 21.70204057 13.31398814 22.90044535 11 24 C11.17789063 22.58847656 11.17789063 22.58847656 11.359375 21.1484375 C12.2353161 13.589587 12.2353161 13.589587 10.5625 6.3125 C7.20196828 3.27982503 4.32444552 2.29733365 0 1 C0 0.67 0 0.34 0 0 Z " fill="#814142" transform="translate(101,92)"/>
<path d="M0 0 C-0.33 1.65 -0.66 3.3 -1 5 C-0.39671875 5.12117188 0.2065625 5.24234375 0.828125 5.3671875 C1.62734375 5.53476563 2.4265625 5.70234375 3.25 5.875 C4.03890625 6.03742188 4.8278125 6.19984375 5.640625 6.3671875 C7.96831144 6.99150075 9.89031952 7.84838542 12 9 C11.01 9.66 10.02 10.32 9 11 C11.73249341 11.75277515 14.28100683 12.16641703 17.109375 12.31640625 C17.86347656 12.35830078 18.61757812 12.40019531 19.39453125 12.44335938 C20.56048828 12.50233398 20.56048828 12.50233398 21.75 12.5625 C22.93916016 12.62727539 22.93916016 12.62727539 24.15234375 12.69335938 C26.10137815 12.79902991 28.05066748 12.89997966 30 13 C30 13.33 30 13.66 30 14 C25.38 14.33 20.76 14.66 16 15 C16 15.66 16 16.32 16 17 C12.26512223 16.5020163 10.18762365 16.12508244 7 14 C7.33 13.67 7.66 13.34 8 13 C6.96939453 12.61908203 6.96939453 12.61908203 5.91796875 12.23046875 C5.01691406 11.88628906 4.11585937 11.54210937 3.1875 11.1875 C2.29417969 10.85105469 1.40085937 10.51460937 0.48046875 10.16796875 C-1.94059228 9.02797308 -3.35072796 8.08761677 -5 6 C-5 5.34 -5 4.68 -5 4 C-7.31 4.33 -9.62 4.66 -12 5 C-12 4.01 -12 3.02 -12 2 C-10.68 2.33 -9.36 2.66 -8 3 C-8 2.34 -8 1.68 -8 1 C-5.07175348 0.02391783 -3.04386724 -0.08226668 0 0 Z " fill="#5C2120" transform="translate(73,73)"/>
<path d="M0 0 C5.85659906 1.66153012 11.4590134 3.47041916 17 6 C14.65361803 9.22627521 11.79258434 9.88804013 8.07421875 10.7265625 C5.23111519 11.10135958 2.76520043 10.69130011 0 10 C0 9.34 0 8.68 0 8 C-0.66 8 -1.32 8 -2 8 C-1.34 5.36 -0.68 2.72 0 0 Z " fill="#822322" transform="translate(68,83)"/>
<path d="M0 0 C0.99 0.66 1.98 1.32 3 2 C2.35867312 18.78507256 2.35867312 18.78507256 -1 26 C-3.10546875 26.7265625 -3.10546875 26.7265625 -5 27 C-4.7834375 25.93072266 -4.7834375 25.93072266 -4.5625 24.83984375 C-3.7271756 20.52980186 -3 16.52803939 -3 12.125 C-3 8.88951087 -2.39975179 6.88698807 -1 4 C-0.34 4 0.32 4 1 4 C0.67 2.68 0.34 1.36 0 0 Z " fill="#95605F" transform="translate(185,66)"/>
<path d="M0 0 C-0.14148989 1.6045556 -0.28835686 3.20863767 -0.4375 4.8125 C-0.51871094 5.70582031 -0.59992188 6.59914063 -0.68359375 7.51953125 C-1 10 -1 10 -2 13 C-6.94487426 16.03072939 -13.78304017 15.71306555 -19.30859375 14.48828125 C-20.14583984 14.24658203 -20.14583984 14.24658203 -21 14 C-20.67 13.34 -20.34 12.68 -20 12 C-17.27734375 11.5859375 -17.27734375 11.5859375 -13.9375 11.375 C-12.83277344 11.30023438 -11.72804688 11.22546875 -10.58984375 11.1484375 C-9.73519531 11.09945312 -8.88054687 11.05046875 -8 11 C-8 10.34 -8 9.68 -8 9 C-6.68 9 -5.36 9 -4 9 C-4.33 6.36 -4.66 3.72 -5 1 C-2 0 -2 0 0 0 Z " fill="#5B1011" transform="translate(80,105)"/>
<path d="M0 0 C4.27707103 1.52752537 6.60308356 3.13830129 9 7 C6.69 7.33 4.38 7.66 2 8 C2 7.01 2 6.02 2 5 C-2.95 5 -7.9 5 -13 5 C-13 3.68 -13 2.36 -13 1 C-9.07228597 -0.96385701 -4.29111232 -0.33941001 0 0 Z " fill="#823D3F" transform="translate(109,88)"/>
<path d="M0 0 C0.556875 0.391875 1.11375 0.78375 1.6875 1.1875 C1.6875 5.1875 1.6875 5.1875 0.4375 6.75 C-1.4382969 8.29083317 -3.34636282 9.76374549 -5.3125 11.1875 C-5.9725 10.8575 -6.6325 10.5275 -7.3125 10.1875 C-7.9725 10.1875 -8.6325 10.1875 -9.3125 10.1875 C-9.6425 11.1775 -9.9725 12.1675 -10.3125 13.1875 C-11.3025 13.1875 -12.2925 13.1875 -13.3125 13.1875 C-12.11350302 10.1043649 -10.83549523 7.12470508 -9.3125 4.1875 C-8.6525 4.1875 -7.9925 4.1875 -7.3125 4.1875 C-7.3125 3.5275 -7.3125 2.8675 -7.3125 2.1875 C-3.09973404 -1.08909574 -3.09973404 -1.08909574 0 0 Z " fill="#906C6A" transform="translate(55.3125,77.8125)"/>
<path d="M0 0 C5.28 0.66 10.56 1.32 16 2 C16 6.33094958 15.03435531 8.27034861 13 12 C11 10.625 11 10.625 9 9 C9 8.34 9 7.68 9 7 C7.68 7 6.36 7 5 7 C5 5.35 5 3.7 5 2 C3.35 1.67 1.7 1.34 0 1 C0 0.67 0 0.34 0 0 Z " fill="#772C2C" transform="translate(169,65)"/>
<path d="M0 0 C0.33 0.66 0.66 1.32 1 2 C0.67 2.66 0.34 3.32 0 4 C12.03231432 3.35169636 12.03231432 3.35169636 24 2 C24 2.99 24 3.98 24 5 C15.10424776 8.6719567 6.43099118 8.29540228 -3 8 C-3 7.67 -3 7.34 -3 7 C1.95 6.67 6.9 6.34 12 6 C7.38 6 2.76 6 -2 6 C-1 1 -1 1 0 0 Z " fill="#866061" transform="translate(114,79)"/>
<path d="M0 0 C0 1.65 0 3.3 0 5 C1.32 5.33 2.64 5.66 4 6 C3.05125 6.2475 2.1025 6.495 1.125 6.75 C-2.08246095 7.66955467 -2.08246095 7.66955467 -3.25 10.0625 C-3.4975 10.701875 -3.745 11.34125 -4 12 C-4.99 12.495 -4.99 12.495 -6 13 C-6.33 13.99 -6.66 14.98 -7 16 C-7.2475 15.05125 -7.495 14.1025 -7.75 13.125 C-8.6857077 9.91306809 -8.6857077 9.91306809 -11.125 8.625 C-11.74375 8.41875 -12.3625 8.2125 -13 8 C-11.68 8 -10.36 8 -9 8 C-8.7525 7.4225 -8.505 6.845 -8.25 6.25 C-6.15415198 2.47747356 -4.46699396 0 0 0 Z " fill="#8D4647" transform="translate(174,67)"/>
<path d="M0 0 C1.485 0.99 1.485 0.99 3 2 C3 2.66 3 3.32 3 4 C3.66 4 4.32 4 5 4 C5 4.66 5 5.32 5 6 C5.5775 5.649375 6.155 5.29875 6.75 4.9375 C9 4 9 4 11.1875 4.25 C13 5 13 5 14 7 C10.7 7.66 7.4 8.32 4 9 C4 9.66 4 10.32 4 11 C2.68 11 1.36 11 0 11 C-0.33 11.66 -0.66 12.32 -1 13 C-1.02686553 11.02090602 -1.04633375 9.04171029 -1.0625 7.0625 C-1.07410156 5.96035156 -1.08570312 4.85820313 -1.09765625 3.72265625 C-1 1 -1 1 0 0 Z " fill="#740C10" transform="translate(116,97)"/>
<path d="M0 0 C5.6555181 0.60503854 11.00213991 1.62185703 16.5 3.0625 C17.59054688 3.3419043 17.59054688 3.3419043 18.703125 3.62695312 C20.46987724 4.08026455 22.23510775 4.5395002 24 5 C24 5.33 24 5.66 24 6 C23.05125 5.979375 22.1025 5.95875 21.125 5.9375 C18.09333717 5.77448174 18.09333717 5.77448174 16 7 C13.7178844 6.57782338 11.44843137 6.08640274 9.1875 5.5625 C2.06698566 3.99836122 -4.70155591 3.6676931 -12 4 C-9.1004339 2.34123921 -7.08364791 1.7638784 -3.75 1.875 C-1.89375 1.936875 -1.89375 1.936875 0 2 C0 1.34 0 0.68 0 0 Z " fill="#926F6E" transform="translate(152,60)"/>
<path d="M0 0 C0.33 0 0.66 0 1 0 C1 2.31 1 4.62 1 7 C1.94875 7.12375 2.8975 7.2475 3.875 7.375 C7 8 7 8 9 10 C9.39764263 11.98821313 9.73775349 13.98944339 10 16 C5.25 17 5.25 17 3 17 C2.67 16.01 2.34 15.02 2 14 C1.34 13.34 0.68 12.68 0 12 C0 11.01 0 10.02 0 9 C-0.33 8.34 -0.66 7.68 -1 7 C-0.71758117 4.6599583 -0.38749213 2.32495277 0 0 Z " fill="#856464" transform="translate(38,97)"/>
<path d="M0 0 C2.875 -0.125 2.875 -0.125 6 0 C8 2 8 2 8 5 C7.45546269 8.03385072 6.77341274 11.01683656 6 14 C5.34 14 4.68 14 4 14 C3.67 14.66 3.34 15.32 3 16 C1.99503148 12.98509443 1.89664697 10.95818308 1.9375 7.8125 C1.94652344 6.91144531 1.95554688 6.01039062 1.96484375 5.08203125 C1.97644531 4.39496094 1.98804688 3.70789063 2 3 C1.34 3 0.68 3 0 3 C0 2.01 0 1.02 0 0 Z " fill="#651416" transform="translate(159,76)"/>
<path d="M0 0 C-3.465 1.485 -3.465 1.485 -7 3 C-6.01 3.66 -5.02 4.32 -4 5 C-5.5552912 5.70365602 -7.11964827 6.38729378 -8.6875 7.0625 C-9.55761719 7.44535156 -10.42773438 7.82820313 -11.32421875 8.22265625 C-14.32213864 9.0935848 -16.03280153 8.85006226 -19 8 C-19.33 7.01 -19.66 6.02 -20 5 C-17.42138975 3.96555751 -14.83825365 2.94727716 -12.25 1.9375 C-11.15558594 1.49567383 -11.15558594 1.49567383 -10.0390625 1.04492188 C-8.97558594 0.6340332 -8.97558594 0.6340332 -7.890625 0.21484375 C-7.24125977 -0.04176025 -6.59189453 -0.29836426 -5.92285156 -0.56274414 C-3.63367214 -1.08330284 -2.20743336 -0.72364304 0 0 Z " fill="#8E575B" transform="translate(147,95)"/>
<path d="M0 0 C0.88365234 0.04705078 1.76730469 0.09410156 2.67773438 0.14257812 C3.59748047 0.20251953 4.51722656 0.26246094 5.46484375 0.32421875 C6.85026367 0.39672852 6.85026367 0.39672852 8.26367188 0.47070312 C15.11052655 0.86581015 15.11052655 0.86581015 17.40234375 2.01171875 C17.40234375 2.67171875 17.40234375 3.33171875 17.40234375 4.01171875 C14.54791622 4.0660888 11.69454299 4.10556849 8.83984375 4.13671875 C8.03998047 4.15347656 7.24011719 4.17023438 6.41601562 4.1875 C1.3373404 4.22895857 -2.78577531 3.6522795 -7.59765625 2.01171875 C-4.3507017 -0.15291761 -3.69837446 -0.21018929 0 0 Z " fill="#5F171D" transform="translate(86.59765625,81.98828125)"/>
<path d="M0 0 C1.63001953 0.15275391 1.63001953 0.15275391 3.29296875 0.30859375 C4.12441406 0.39238281 4.95585938 0.47617187 5.8125 0.5625 C5.8125 0.8925 5.8125 1.2225 5.8125 1.5625 C4.90628906 1.66046875 4.00007813 1.7584375 3.06640625 1.859375 C-6.21286128 2.99841736 -13.11340338 5.09893155 -21.0625 9.875 C-22.609375 10.7103125 -22.609375 10.7103125 -24.1875 11.5625 C-25.1775 11.2325 -26.1675 10.9025 -27.1875 10.5625 C-23.58799313 7.38154044 -20.77268488 5.12817289 -16.1875 3.5625 C-14.99125 3.046875 -13.795 2.53125 -12.5625 2 C-7.83435512 -0.01383949 -5.08711254 -0.49230121 0 0 Z " fill="#958C8E" transform="translate(108.1875,60.4375)"/>
<path d="M0 0 C-2.2483966 1.46085662 -4.49862173 2.91875136 -6.75 4.375 C-7.38421875 4.7875 -8.0184375 5.2 -8.671875 5.625 C-11.71355176 7.58941624 -14.70190547 9.48420908 -18 11 C-17.8864371 9.35333797 -17.75882619 7.70763918 -17.625 6.0625 C-17.55539063 5.14597656 -17.48578125 4.22945313 -17.4140625 3.28515625 C-17.27742188 2.53105469 -17.14078125 1.77695313 -17 1 C-16.34 0.67 -15.68 0.34 -15 0 C-14.67 0.99 -14.34 1.98 -14 3 C-12.68 3 -11.36 3 -10 3 C-10 2.34 -10 1.68 -10 1 C-8.71073008 0.63720544 -7.41846728 0.28503302 -6.125 -0.0625 C-5.40570313 -0.25972656 -4.68640625 -0.45695312 -3.9453125 -0.66015625 C-2 -1 -2 -1 0 0 Z " fill="#8C5354" transform="translate(130,105)"/>
<path d="M0 0 C1.87479459 1.81181699 2.92723127 3.2600891 3.18603516 5.89160156 C3.14241728 8.14844165 2.99932551 10.37554532 2.8125 12.625 C2.76802734 13.40101562 2.72355469 14.17703125 2.67773438 14.9765625 C2.2734375 20.7265625 2.2734375 20.7265625 0 23 C-2.73630842 14.79107473 -2.34919632 8.22218713 0 0 Z " fill="#7E595D" transform="translate(85,99)"/>
<path d="M0 0 C0 0.33 0 0.66 0 1 C-7.41252726 2.1307245 -7.41252726 2.1307245 -10.18554688 1.51367188 C-13.59355709 0.89166862 -16.80498307 0.88808635 -20.26953125 0.90234375 C-20.95053391 0.9037587 -21.63153656 0.90517365 -22.33317566 0.90663147 C-24.49299647 0.91219702 -26.65271089 0.92474297 -28.8125 0.9375 C-30.28320162 0.94251946 -31.75390488 0.94708159 -33.22460938 0.95117188 C-36.8164404 0.96215512 -40.4082098 0.97939578 -44 1 C-44 0.67 -44 0.34 -44 0 C-29.54884321 -2.31908484 -14.40646097 -3.10736968 0 0 Z " fill="#B79293" transform="translate(150,59)"/>
<path d="M0 0 C0 0.99 0 1.98 0 3 C-0.99 3.33 -1.98 3.66 -3 4 C-3.33 4.99 -3.66 5.98 -4 7 C-6.0625 7.6875 -6.0625 7.6875 -8 8 C-8 8.66 -8 9.32 -8 10 C-10.18771713 12.32444946 -11.87166826 13.8623477 -15.11328125 14.2578125 C-17.07738938 14.25083521 -19.0403779 14.13285574 -21 14 C-21 13.67 -21 13.34 -21 13 C-18.69 13 -16.38 13 -14 13 C-13.97035156 12.43796875 -13.94070312 11.8759375 -13.91015625 11.296875 C-12.50582206 7.75289 -9.52364362 6.24672517 -6.4375 4.25 C-5.82197266 3.83878906 -5.20644531 3.42757812 -4.57226562 3.00390625 C-3.05495359 1.99236489 -1.52833914 0.99480211 0 0 Z " fill="#86696E" transform="translate(78,94)"/>
<path d="M0 0 C0 0.66 0 1.32 0 2 C-2.09950586 2.86555948 -4.2047907 3.71711277 -6.3125 4.5625 C-8.07013672 5.27599609 -8.07013672 5.27599609 -9.86328125 6.00390625 C-13 7 -13 7 -16 6 C-14.56542672 5.0165504 -13.12722594 4.03839079 -11.6875 3.0625 C-10.88699219 2.51722656 -10.08648437 1.97195312 -9.26171875 1.41015625 C-5.78187825 -0.75948524 -3.85506638 -1.19639991 0 0 Z " fill="#663E3E" transform="translate(158,79)"/>
<path d="M0 0 C1.6266848 0.28211877 3.25132896 0.57602375 4.875 0.875 C5.77992187 1.03742188 6.68484375 1.19984375 7.6171875 1.3671875 C10 2 10 2 12 4 C8.57905758 6.28062828 7.31812778 6.21925007 3.3125 6.125 C1.82169922 6.09792969 1.82169922 6.09792969 0.30078125 6.0703125 C-0.45847656 6.04710938 -1.21773438 6.02390625 -2 6 C-1.34 5.34 -0.68 4.68 0 4 C0 2.68 0 1.36 0 0 Z " fill="#650908" transform="translate(73,86)"/>
<path d="M0 0 C0 0.66 0 1.32 0 2 C-5.76747013 5.07598407 -12.8330997 4.780283 -19 3 C-18.67 2.34 -18.34 1.68 -18 1 C-15.48828125 0.5859375 -15.48828125 0.5859375 -12.3125 0.375 C-11.27738281 0.30023438 -10.24226563 0.22546875 -9.17578125 0.1484375 C-6.11151175 0.00521211 -3.06707543 -0.02758988 0 0 Z " fill="#93605F" transform="translate(78,116)"/>
<path d="M0 0 C1.65 0 3.3 0 5 0 C4.34 0.66 3.68 1.32 3 2 C5.31 2.66 7.62 3.32 10 4 C10 4.66 10 5.32 10 6 C4.39 6 -1.22 6 -7 6 C-7 5.67 -7 5.34 -7 5 C-3.535 4.505 -3.535 4.505 0 4 C0 2.68 0 1.36 0 0 Z " fill="#743839" transform="translate(54,101)"/>
<path d="M0 0 C8.25 0.66 16.5 1.32 25 2 C25 2.33 25 2.66 25 3 C20.38 3.33 15.76 3.66 11 4 C11 4.66 11 5.32 11 6 C7.26512223 5.5020163 5.18762365 5.12508244 2 3 C2.33 2.67 2.66 2.34 3 2 C2.01 1.34 1.02 0.68 0 0 Z " fill="#D8BFBC" transform="translate(78,84)"/>
<path d="M0 0 C0 1.98 0 3.96 0 6 C-1.65 6 -3.3 6 -5 6 C-5 5.34 -5 4.68 -5 4 C-5.66 4 -6.32 4 -7 4 C-7 3.34 -7 2.68 -7 2 C-7.66 1.67 -8.32 1.34 -9 1 C-5.64919071 -1.10976881 -3.77897651 -1.0497157 0 0 Z " fill="#7D2021" transform="translate(76,108)"/>
<path d="M0 0 C5.94 1.485 5.94 1.485 12 3 C8.48886112 5.34075925 6.1804509 5.70663502 2 6 C-0.4375 5.0625 -0.4375 5.0625 -2 4 C-1.34 3.67 -0.68 3.34 0 3 C0 2.01 0 1.02 0 0 Z " fill="#895255" transform="translate(73,78)"/>
<path d="M0 0 C0.33 0.66 0.66 1.32 1 2 C1.66 2.33 2.32 2.66 3 3 C2.67 3.33 2.34 3.66 2 4 C2.28604898 5.67542976 2.61781233 7.34385343 3 9 C2.34 9 1.68 9 1 9 C0.67 9.99 0.34 10.98 0 12 C-0.2475 11.05125 -0.495 10.1025 -0.75 9.125 C-1.6857077 5.91306809 -1.6857077 5.91306809 -4.125 4.625 C-4.74375 4.41875 -5.3625 4.2125 -6 4 C-4.68 4 -3.36 4 -2 4 C-1.34 2.68 -0.68 1.36 0 0 Z " fill="#8C5151" transform="translate(167,71)"/>
<path d="M0 0 C3.3 0.99 6.6 1.98 10 3 C9.01 3.66 8.02 4.32 7 5 C6.67 4.67 6.34 4.34 6 4 C5.67 4.99 5.34 5.98 5 7 C2.525 6.01 2.525 6.01 0 5 C0 3.35 0 1.7 0 0 Z " fill="#812C2F" transform="translate(68,83)"/>
<path d="M0 0 C2.97 0.495 2.97 0.495 6 1 C6 1.66 6 2.32 6 3 C7.98 3 9.96 3 12 3 C11.67 4.65 11.34 6.3 11 8 C8.03 7.505 8.03 7.505 5 7 C5 5.35 5 3.7 5 2 C3.35 1.67 1.7 1.34 0 1 C0 0.67 0 0.34 0 0 Z " fill="#5F0E0E" transform="translate(169,65)"/>
<path d="M0 0 C-0.33 0.99 -0.66 1.98 -1 3 C-3.3125 3.625 -3.3125 3.625 -6 4 C-6.99 3.34 -7.98 2.68 -9 2 C-11.32387947 1.60612212 -13.65793749 1.26513915 -16 1 C-16 0.67 -16 0.34 -16 0 C-10.31302429 -0.91397824 -5.68697571 -0.91397824 0 0 Z " fill="#8A4A48" transform="translate(131,62)"/>
<path d="M0 0 C-3.66002197 3.05001831 -9.07851471 7 -14 7 C-14 6.34 -14 5.68 -14 5 C-12.68 4.67 -11.36 4.34 -10 4 C-10 3.01 -10 2.02 -10 1 C-6.61981469 -0.04005702 -3.5219721 -0.08004482 0 0 Z " fill="#6D2C2A" transform="translate(73,94)"/>
<path d="M0 0 C0.66 0.33 1.32 0.66 2 1 C1.43410156 1.39832031 0.86820313 1.79664062 0.28515625 2.20703125 C-0.44832031 2.73683594 -1.18179688 3.26664062 -1.9375 3.8125 C-2.66839844 4.33457031 -3.39929687 4.85664062 -4.15234375 5.39453125 C-6.26883226 6.95867127 -6.26883226 6.95867127 -7 10 C-7.99 10 -8.98 10 -10 10 C-8.80100302 6.9168649 -7.52299523 3.93720508 -6 1 C-5.01 1.33 -4.02 1.66 -3 2 C-2.01 1.34 -1.02 0.68 0 0 Z " fill="#C5ABAA" transform="translate(52,81)"/>
<path d="M0 0 C-2.11070205 3.16605307 -3.73539027 4.19587357 -7 6 C-6.67 4.35 -6.34 2.7 -6 1 C-9.3 1.33 -12.6 1.66 -16 2 C-10.29371491 -0.85314255 -6.22715575 -1.33439052 0 0 Z " fill="#C1A5A0" transform="translate(79,72)"/>
<path d="M0 0 C-0.66 0 -1.32 0 -2 0 C-2 0.66 -2 1.32 -2 2 C-5.4019487 4.09350689 -8.05272412 4.17942163 -12 4 C-11.67 3.01 -11.34 2.02 -11 1 C-7.08609399 -0.47694566 -4.00565371 -1.60226148 0 0 Z " fill="#80070F" transform="translate(57,98)"/>
<path d="M0 0 C1.58467728 0.28427417 3.1677057 0.57774818 4.75 0.875 C6.07257813 1.11863281 6.07257813 1.11863281 7.421875 1.3671875 C9.86947744 1.96796264 11.80599857 2.77997117 14 4 C13.05125 3.979375 12.1025 3.95875 11.125 3.9375 C8.09333717 3.77448174 8.09333717 3.77448174 6 5 C4.0546875 4.66015625 4.0546875 4.66015625 1.875 4.0625 C1.15054688 3.86785156 0.42609375 3.67320313 -0.3203125 3.47265625 C-0.87460938 3.31667969 -1.42890625 3.16070312 -2 3 C-1.34 2.01 -0.68 1.02 0 0 Z " fill="#A08487" transform="translate(162,62)"/>
<path d="M0 0 C-0.99 0.495 -0.99 0.495 -2 1 C-2 1.66 -2 2.32 -2 3 C-0.68 3.33 0.64 3.66 2 4 C0.35 4 -1.3 4 -3 4 C-3 3.34 -3 2.68 -3 2 C-8.28 1.67 -13.56 1.34 -19 1 C-19 0.67 -19 0.34 -19 0 C-16.39619004 -0.19476139 -13.79224467 -0.38108614 -11.1875 -0.5625 C-10.44951172 -0.61857422 -9.71152344 -0.67464844 -8.95117188 -0.73242188 C-5.63211484 -0.95769724 -3.18767436 -1.06255812 0 0 Z " fill="#BC8484" transform="translate(107,82)"/>
<path d="M0 0 C1.63001953 0.15275391 1.63001953 0.15275391 3.29296875 0.30859375 C4.12441406 0.39238281 4.95585938 0.47617187 5.8125 0.5625 C5.8125 0.8925 5.8125 1.2225 5.8125 1.5625 C-3.0975 2.5525 -3.0975 2.5525 -12.1875 3.5625 C-7.96574886 -0.65925114 -5.69279618 -0.55091576 0 0 Z " fill="#8A7678" transform="translate(108.1875,60.4375)"/>
<path d="M0 0 C2.45862401 -0.05383848 4.9160755 -0.09359038 7.375 -0.125 C8.42300781 -0.15013672 8.42300781 -0.15013672 9.4921875 -0.17578125 C11.32897486 -0.19344267 13.16601963 -0.10303261 15 0 C15.66 0.66 16.32 1.32 17 2 C12.91721966 3.08318662 9.82121165 2.83473185 5.6875 2.0625 C4.61886719 1.86785156 3.55023438 1.67320313 2.44921875 1.47265625 C1.64097656 1.31667969 0.83273438 1.16070312 0 1 C0 0.67 0 0.34 0 0 Z " fill="#731014" transform="translate(124,60)"/>
<path d="M0 0 C0.33 0 0.66 0 1 0 C1 2.31 1 4.62 1 7 C1.94875 7.12375 2.8975 7.2475 3.875 7.375 C7 8 7 8 9 10 C6 11 6 11 2 11 C0.1875 10 0.1875 10 -1 8 C-0.9454782 5.23574466 -0.49382695 2.73849488 0 0 Z " fill="#EFD6D2" transform="translate(38,97)"/>
<path d="M0 0 C0.66 0.33 1.32 0.66 2 1 C2 1.99 2 2.98 2 4 C2.99 4.33 3.98 4.66 5 5 C4.67 5.66 4.34 6.32 4 7 C1.4375 7.625 1.4375 7.625 -1 8 C-1.33 7.34 -1.66 6.68 -2 6 C-4.02463255 5.34786708 -4.02463255 5.34786708 -6 5 C-4.68 4.67 -3.36 4.34 -2 4 C-2 3.01 -2 2.02 -2 1 C-1.34 0.67 -0.68 0.34 0 0 Z " fill="#AD797A" transform="translate(66,77)"/>
<path d="M0 0 C2.56687367 3.8503105 1.83288724 5.58569763 1 10 C0.01 10 -0.98 10 -2 10 C-2 7.36 -2 4.72 -2 2 C-1.34 2 -0.68 2 0 2 C0 1.34 0 0.68 0 0 Z " fill="#925D5C" transform="translate(41,94)"/>
<path d="M0 0 C0.33 0.66 0.66 1.32 1 2 C-2.3 2.66 -5.6 3.32 -9 4 C-8 1 -8 1 -6.1875 -0.25 C-3.63120395 -1.12644436 -2.47718997 -1.02504413 0 0 Z " fill="#601114" transform="translate(129,102)"/>
<path d="M0 0 C0.33 1.32 0.66 2.64 1 4 C2.65 4 4.3 4 6 4 C6 4.66 6 5.32 6 6 C8.31 6 10.62 6 13 6 C13 6.33 13 6.66 13 7 C11.39592672 7.02708567 9.7917215 7.04643483 8.1875 7.0625 C6.84751953 7.07990234 6.84751953 7.07990234 5.48046875 7.09765625 C3 7 3 7 0 6 C0 4.02 0 2.04 0 0 Z " fill="#5A0F0D" transform="translate(42,99)"/>
<path d="M0 0 C0 0.66 0 1.32 0 2 C-4.29 2 -8.58 2 -13 2 C-7.82918037 -0.58540981 -5.59335113 -1.11867023 0 0 Z " fill="#4D0D0F" transform="translate(104,84)"/>
<path d="M0 0 C-0.99 0.66 -1.98 1.32 -3 2 C-3.99 1.34 -4.98 0.68 -6 0 C-6 0.99 -6 1.98 -6 3 C-8.97 2.505 -8.97 2.505 -12 2 C-11 0 -11 0 -9.375 -1.25 C-5.86434887 -2.35862667 -3.39539267 -1.17532823 0 0 Z " fill="#986D6F" transform="translate(67,75)"/>
<path d="M0 0 C1.875 0.25 1.875 0.25 4 1 C5.25 3.0625 5.25 3.0625 6 5 C6.99 5 7.98 5 9 5 C9 5.66 9 6.32 9 7 C7.68 7.33 6.36 7.66 5 8 C5 7.34 5 6.68 5 6 C4.34 6 3.68 6 3 6 C0 2.53846154 0 2.53846154 0 0 Z " fill="#A47472" transform="translate(116,95)"/>
<path d="M0 0 C0.33 0.66 0.66 1.32 1 2 C0.67 2.66 0.34 3.32 0 4 C4.62 4 9.24 4 14 4 C14 4.33 14 4.66 14 5 C6.08 5.495 6.08 5.495 -2 6 C-1 1 -1 1 0 0 Z " fill="#AF7F7F" transform="translate(114,79)"/>
<path d="M0 0 C1.125 3.75 1.125 3.75 0 6 C0.99 6.33 1.98 6.66 3 7 C1.625 9 1.625 9 0 11 C-0.66 11 -1.32 11 -2 11 C-1.85957123 9.35369672 -1.71250671 7.70795821 -1.5625 6.0625 C-1.48128906 5.14597656 -1.40007812 4.22945313 -1.31640625 3.28515625 C-1 1 -1 1 0 0 Z " fill="#AD9094" transform="translate(114,105)"/>
<path d="M0 0 C-3.29334787 2.16420003 -6.02867481 3.67800066 -10 4 C-10.66 3.34 -11.32 2.68 -12 2 C-10.56656 1.46809459 -9.12804633 0.94984742 -7.6875 0.4375 C-6.48673828 0.00244141 -6.48673828 0.00244141 -5.26171875 -0.44140625 C-3 -1 -3 -1 0 0 Z " fill="#988588" transform="translate(164,72)"/>
<path d="M0 0 C1.53166168 4.08443115 0.63081652 7.79455657 0 12 C-1.65 12 -3.3 12 -5 12 C-3.68 11.67 -2.36 11.34 -1 11 C-1.33 7.7 -1.66 4.4 -2 1 C-1.34 0.67 -0.68 0.34 0 0 Z " fill="#AF7E7E" transform="translate(166,84)"/>
<path d="M0 0 C0.66 0.66 1.32 1.32 2 2 C-2.455 2.495 -2.455 2.495 -7 3 C-7 2.01 -7 1.02 -7 0 C-3.85179059 -1.04940314 -3.00659136 -1.066855 0 0 Z " fill="#580F0D" transform="translate(103,90)"/>
<path d="M0 0 C1.3303125 0.37125 1.3303125 0.37125 2.6875 0.75 C-0.01438004 2.55125336 -2.24307703 3.75243753 -5.3125 4.75 C-6.3025 4.42 -7.2925 4.09 -8.3125 3.75 C-4.12788462 -0.31153846 -4.12788462 -0.31153846 0 0 Z " fill="#928380" transform="translate(150.3125,81.25)"/>
<path d="M0 0 C2.0625 0.1875 2.0625 0.1875 4 1 C4.33 1.99 4.66 2.98 5 4 C3.35 4.66 1.7 5.32 0 6 C0 5.34 0 4.68 0 4 C-0.66 3.34 -1.32 2.68 -2 2 C-1.34 1.34 -0.68 0.68 0 0 Z " fill="#8E545C" transform="translate(123,66)"/>
<path d="M0 0 C2.31 0.66 4.62 1.32 7 2 C5.6875 3.5 5.6875 3.5 4 5 C3.01 5 2.02 5 1 5 C0.67 3.35 0.34 1.7 0 0 Z " fill="#77393E" transform="translate(78,87)"/>
<path d="M0 0 C0.8723412 2.99480917 1.10829766 5.63575911 1.0625 8.75 C1.05347656 9.54921875 1.04445313 10.3484375 1.03515625 11.171875 C1.01775391 12.07679687 1.01775391 12.07679687 1 13 C0.01 13 -0.98 13 -2 13 C-1.85851011 11.3954444 -1.71164314 9.79136233 -1.5625 8.1875 C-1.48128906 7.29417969 -1.40007812 6.40085937 -1.31640625 5.48046875 C-1 3 -1 3 0 0 Z " fill="#D7CBCF" transform="translate(86,108)"/>
<path d="M0 0 C-0.33 3.3 -0.66 6.6 -1 10 C-3 7 -3 7 -3 5 C-2.34 5 -1.68 5 -1 5 C-1 4.34 -1 3.68 -1 3 C-2.32 2.34 -3.64 1.68 -5 1 C-2 0 -2 0 0 0 Z " fill="#9D7471" transform="translate(80,105)"/>
<path d="M0 0 C0.99 0.66 1.98 1.32 3 2 C2.67 3.98 2.34 5.96 2 8 C0.68 8.33 -0.64 8.66 -2 9 C-1.34 6.03 -0.68 3.06 0 0 Z " fill="#B3A3A7" transform="translate(182,84)"/>
<path d="M0 0 C0.33 0.66 0.66 1.32 1 2 C1.99 2 2.98 2 4 2 C3.34 4.64 2.68 7.28 2 10 C1.67 10 1.34 10 1 10 C0.67 6.7 0.34 3.4 0 0 Z " fill="#643D3C" transform="translate(182,78)"/>
<path d="M0 0 C0 0.99 0 1.98 0 3 C-0.99 3.33 -1.98 3.66 -3 4 C-3.33 4.99 -3.66 5.98 -4 7 C-4.99 6.67 -5.98 6.34 -7 6 C-2.25 1.125 -2.25 1.125 0 0 Z " fill="#ABA3A6" transform="translate(78,94)"/>
<path d="M0 0 C7.75 -0.125 7.75 -0.125 10 1 C10 1.66 10 2.32 10 3 C3.375 2.25 3.375 2.25 0 0 Z " fill="#865349" transform="translate(101,92)"/>
<path d="M0 0 C1.32 0 2.64 0 4 0 C3.67 0.99 3.34 1.98 3 3 C0.69 3.33 -1.62 3.66 -4 4 C-4 3.01 -4 2.02 -4 1 C-2.68 1.33 -1.36 1.66 0 2 C0 1.34 0 0.68 0 0 Z " fill="#510F11" transform="translate(65,74)"/>
<path d="M0 0 C0.66 0 1.32 0 2 0 C2 0.66 2 1.32 2 2 C2.99 2 3.98 2 5 2 C3.25 5.875 3.25 5.875 1 7 C0.67 4.69 0.34 2.38 0 0 Z " fill="#7A3539" transform="translate(168,70)"/>
<path d="M0 0 C2.375 0.8125 2.375 0.8125 4.375 2.8125 C0.745 2.8125 -2.885 2.8125 -6.625 2.8125 C-2.625 -0.1875 -2.625 -0.1875 0 0 Z " fill="#816A69" transform="translate(159.625,61.1875)"/>
<path d="M0 0 C2.31 0 4.62 0 7 0 C7 0.99 7 1.98 7 3 C7.66 3.33 8.32 3.66 9 4 C6.36 3.67 3.72 3.34 1 3 C0.67 2.01 0.34 1.02 0 0 Z " fill="#B58685" transform="translate(152,76)"/>
<path d="M0 0 C-1 2 -1 2 -3.375 2.8125 C-6 3 -6 3 -7.8125 1.5625 C-8.204375 1.046875 -8.59625 0.53125 -9 0 C-3.375 -1.125 -3.375 -1.125 0 0 Z " fill="#AB6661" transform="translate(131,63)"/>
<path d="M0 0 C2 1 2 1 2 1 Z " fill="#CFEDED" transform="translate(147,85)"/>
<path d="M0 0 C2 1 2 1 2 1 Z " fill="#EDDBDB" transform="translate(49,78)"/>
<path d="M0 0 C2 1 2 1 2 1 Z " fill="#FFFFFF" transform="translate(103,58)"/>
<path d="" fill="#DBDBDB" transform="translate(0,0)"/>
<path d="" fill="#FFFFFF" transform="translate(0,0)"/>
<path d="" fill="#DBDBDB" transform="translate(0,0)"/>
<path d="" fill="#DFDFDF" transform="translate(0,0)"/>
<path d="" fill="#FFFFFF" transform="translate(0,0)"/>
<path d="" fill="#FFFFBF" transform="translate(0,0)"/>
<path d="" fill="#FFFFFF" transform="translate(0,0)"/>
<path d="" fill="#FFDBDB" transform="translate(0,0)"/>
<path d="" fill="#FFFFFF" transform="translate(0,0)"/>
<path d="" fill="#FFFFFF" transform="translate(0,0)"/>
<path d="" fill="#EAD4D4" transform="translate(0,0)"/>
<path d="" fill="#FFFFFF" transform="translate(0,0)"/>
<path d="" fill="#FFCCCC" transform="translate(0,0)"/>
<path d="" fill="#D6E0E0" transform="translate(0,0)"/>
<path d="" fill="#DFDFDF" transform="translate(0,0)"/>
<path d="" fill="#FFFFFF" transform="translate(0,0)"/>
<path d="" fill="#FFE3E3" transform="translate(0,0)"/>
<path d="" fill="#FFFFFF" transform="translate(0,0)"/>
<path d="" fill="#E6CCCC" transform="translate(0,0)"/>
<path d="" fill="#FFD4D4" transform="translate(0,0)"/>
<path d="" fill="#FFDBDB" transform="translate(0,0)"/>
<path d="" fill="#DFDFDF" transform="translate(0,0)"/>
<path d="" fill="#FFFFFF" transform="translate(0,0)"/>
<path d="" fill="#FFFFFF" transform="translate(0,0)"/>
<path d="" fill="#DFDFDF" transform="translate(0,0)"/>
<path d="" fill="#DFDFDF" transform="translate(0,0)"/>
<path d="" fill="#FFCCFF" transform="translate(0,0)"/>
<path d="" fill="#EAEAEA" transform="translate(0,0)"/>
<path d="" fill="#FFFFFF" transform="translate(0,0)"/>
<path d="" fill="#FFFFFF" transform="translate(0,0)"/>
<path d="" fill="#FFFFFF" transform="translate(0,0)"/>
<path d="" fill="#FFFFFF" transform="translate(0,0)"/>
</svg>
