<?xml version="1.0" encoding="UTF-8"?>
<svg version="1.1" xmlns="http://www.w3.org/2000/svg" width="500" height="500">
<path d="M0 0 C1.29327965 -0.0049926 1.29327965 -0.0049926 2.61268616 -0.01008606 C4.43392406 -0.01512911 6.25517113 -0.0174952 8.07641602 -0.01733398 C10.80826895 -0.01950002 13.5397038 -0.03762706 16.27148438 -0.05664062 C48.99014149 -0.16329837 79.23924269 8.74261972 106.1953125 27.59765625 C114.78819336 32.56792691 123.19237334 34.02514733 132.97265625 35.10546875 C135.64733014 35.42724554 138.31997912 35.7638639 140.9921875 36.10546875 C141.66027435 36.19058212 142.32836121 36.2756955 143.01669312 36.36338806 C195.85987061 43.25739252 195.85987061 43.25739252 207.97265625 57.35546875 C214.14078395 66.42712973 214.21078146 75.78189538 213.91796875 86.34765625 C213.91146395 89.52850321 214.25693316 92.09094421 214.91015625 95.16796875 C213.06452871 98.28246523 210.26201651 98.77905668 206.91210938 99.69750977 C203.52480161 100.49352709 200.11525639 100.91016048 196.66015625 101.29296875 C195.921604 101.37788574 195.18305176 101.46280273 194.42211914 101.55029297 C188.57370373 102.18320804 182.79240679 102.39665236 176.91015625 102.16796875 C176.96236328 100.84345703 176.96236328 100.84345703 177.015625 99.4921875 C177.28285214 87.64511763 176.28925626 79.05128615 168.3359375 69.9453125 C166.91015625 68.16796875 166.91015625 68.16796875 166.91015625 66.16796875 C154.26982992 60.86718674 144.30750757 58.70729457 130.91015625 63.16796875 C122.05625377 67.97546021 117.33765458 75.50805899 114.46875 84.94140625 C113.01973088 90.71721674 112.91015625 96.18341959 112.91015625 102.16796875 C68.03015625 102.16796875 23.15015625 102.16796875 -23.08984375 102.16796875 C-23.81976074 98.51838379 -24.16090449 96.4638146 -23.96484375 92.98046875 C-23.88132987 82.92539705 -28.13766693 74.59064281 -34.71484375 67.23046875 C-36.99042485 64.98817697 -36.99042485 64.98817697 -40.08984375 64.16796875 C-40.08984375 63.50796875 -40.08984375 62.84796875 -40.08984375 62.16796875 C-41.97953751 61.92746227 -43.86971654 61.69036564 -45.76171875 61.46875 C-47.23638709 61.27823077 -48.70713756 61.05077575 -50.16796875 60.7734375 C-58.97347267 59.28954702 -67.58528578 61.49729981 -75.08984375 66.16796875 C-75.74984375 66.16796875 -76.40984375 66.16796875 -77.08984375 66.16796875 C-77.08984375 66.82796875 -77.08984375 67.48796875 -77.08984375 68.16796875 C-77.74984375 68.16796875 -78.40984375 68.16796875 -79.08984375 68.16796875 C-79.08984375 68.82796875 -79.08984375 69.48796875 -79.08984375 70.16796875 C-79.74984375 70.16796875 -80.40984375 70.16796875 -81.08984375 70.16796875 C-81.33734375 70.82796875 -81.58484375 71.48796875 -81.83984375 72.16796875 C-83.08984375 75.16796875 -83.08984375 75.16796875 -85.08984375 78.48046875 C-88.35326898 84.77595697 -88.44888035 92.21857605 -89.08984375 99.16796875 C-99.29357577 98.8339677 -109.59133673 97.83364009 -118.27734375 92.04296875 C-122.64417263 85.11627466 -122.8430604 76.14981686 -122.08984375 68.16796875 C-121.4671696 65.44427152 -120.69952347 62.80587379 -119.875 60.13671875 C-118.97092198 56.71831431 -118.56168394 53.36620621 -118.15234375 49.85546875 C-116.90185963 40.78449664 -116.90185963 40.78449664 -113.08984375 37.16796875 C-109.22724147 35.18977067 -105.17657874 34.34864513 -100.91796875 33.640625 C-92.22542092 32.13614557 -86.24765641 29.24570797 -78.95703125 24.578125 C-72.63520589 20.54824399 -65.84074702 17.40389309 -59.08984375 14.16796875 C-58.12433594 13.69488281 -57.15882813 13.22179687 -56.1640625 12.734375 C-43.19734321 6.5679796 -30.20079847 3.27323216 -16.08984375 1.16796875 C-15.0423999 0.99450928 -13.99495605 0.8210498 -12.91577148 0.64233398 C-8.581006 0.10487949 -4.36225259 0.00598939 0 0 Z M-50.08984375 25.16796875 C-50.64929688 25.55984375 -51.20875 25.95171875 -51.78515625 26.35546875 C-55.2496393 28.93231649 -55.2496393 28.93231649 -56.52734375 32.91796875 C-56.31498664 35.12920641 -56.31498664 35.12920641 -55.08984375 36.16796875 C-41.65853008 38.07298315 -27.73699561 37.27904365 -14.21484375 37.23046875 C-11.77343842 37.22544395 -9.33203208 37.22088278 -6.890625 37.21679688 C-0.95700913 37.20586841 4.97656879 37.18920795 10.91015625 37.16796875 C10.75482673 35.41544552 10.59835548 33.66302345 10.44140625 31.91064453 C10.35439453 30.93475372 10.26738281 29.95886292 10.17773438 28.95339966 C9.85859456 25.63122259 9.41880938 22.34126636 8.91015625 19.04296875 C8.74515625 17.94726562 8.58015625 16.8515625 8.41015625 15.72265625 C8.17166891 13.24344022 8.17166891 13.24344022 6.91015625 12.16796875 C-11.95301956 10.9482446 -34.61498944 13.56182802 -50.08984375 25.16796875 Z M20.91015625 12.16796875 C21.17160551 18.57347567 22.1351982 24.40861053 23.95703125 30.56640625 C24.32151367 31.80825684 24.68599609 33.05010742 25.06152344 34.32958984 C25.34157227 35.26625488 25.62162109 36.20291992 25.91015625 37.16796875 C34.15106082 37.42984875 42.39199686 37.69070604 50.63297462 37.95027161 C54.45992228 38.07084061 58.28685829 38.19175677 62.11376953 38.31347656 C65.8095687 38.43101321 69.50539603 38.54762455 73.20124435 38.66360474 C74.6085857 38.70792957 76.01591673 38.75258317 77.42323685 38.7975769 C79.40013127 38.86072342 81.37706697 38.92257386 83.35400391 38.984375 C84.47763336 39.01990479 85.60126282 39.05543457 86.75894165 39.09204102 C89.81079977 39.16557478 92.85755324 39.1814916 95.91015625 39.16796875 C95.91015625 38.50796875 95.91015625 37.84796875 95.91015625 37.16796875 C76.43771818 21.13374801 45.80769582 12.16796875 20.91015625 12.16796875 Z M-110.08984375 53.16796875 C-110.13065158 55.16755239 -110.13238731 57.16842129 -110.08984375 59.16796875 C-105.35497776 58.7037662 -101.89967217 58.10697925 -98.08984375 55.16796875 C-96.89751762 53.1179292 -96.89751762 53.1179292 -96.08984375 51.16796875 C-95.42984375 50.83796875 -94.76984375 50.50796875 -94.08984375 50.16796875 C-102.68092829 49.56623908 -102.68092829 49.56623908 -110.08984375 53.16796875 Z M181.91015625 54.16796875 C181.25015625 55.48796875 180.59015625 56.80796875 179.91015625 58.16796875 C184.22917509 64.84281605 192.24202422 69.38468223 199.91015625 71.16796875 C202.66080857 71.33654358 202.66080857 71.33654358 204.91015625 71.16796875 C204.48953432 66.40092015 202.45887927 63.24783998 198.91015625 60.16796875 C193.47376436 56.73687877 188.33143722 54.58674794 181.91015625 54.16796875 Z " fill="#DF3738" transform="translate(202.08984375,118.83203125)"/>
<path d="M0 0 C6.27 0 12.54 0 19 0 C25 7 25 7 25 9 C25.66 9 26.32 9 27 9 C28.63139937 10.92587579 30.13723225 12.84326717 31.625 14.875 C32.25535156 15.70837891 32.25535156 15.70837891 32.8984375 16.55859375 C36 20.73764712 36 20.73764712 36 23 C36.66 23 37.32 23 38 23 C38 23.66 38 24.32 38 25 C38.66 25 39.32 25 40 25 C41.47265625 26.71484375 41.47265625 26.71484375 43.0625 28.9375 C44.89905531 31.58014038 44.89905531 31.58014038 47 34 C47.33 22.78 47.66 11.56 48 0 C54.6 0 61.2 0 68 0 C68.76710126 16.54746996 69.10863438 33.06150358 69.125 49.625 C69.12749756 50.52355713 69.12999512 51.42211426 69.13256836 52.34790039 C69.13842972 54.91166089 69.13698681 57.47530084 69.1328125 60.0390625 C69.13479645 60.81492706 69.1367804 61.59079163 69.13882446 62.39016724 C69.11528836 67.76942328 69.11528836 67.76942328 68 70 C61.73 70 55.46 70 49 70 C48.67 69.01 48.34 68.02 48 67 C47.34 67 46.68 67 46 67 C43 63.53846154 43 63.53846154 43 61 C42.34 61 41.68 61 41 61 C40.34 59.35 39.68 57.7 39 56 C38.34 56 37.68 56 37 56 C35.4921875 54.3203125 35.4921875 54.3203125 33.875 52.125 C33.33617187 51.40570313 32.79734375 50.68640625 32.2421875 49.9453125 C31 48 31 48 31 46 C30.34 46 29.68 46 29 46 C27.4921875 44.25 27.4921875 44.25 25.875 42 C25.33617187 41.2575 24.79734375 40.515 24.2421875 39.75 C23.83226562 39.1725 23.42234375 38.595 23 38 C22.97494385 38.93384521 22.9498877 39.86769043 22.92407227 40.82983398 C22.82913072 44.28325189 22.72988742 47.7364896 22.62768555 51.18969727 C22.58428187 52.68639269 22.54261087 54.18313939 22.50268555 55.67993164 C22.44511384 57.82714312 22.38138284 59.97409521 22.31640625 62.12109375 C22.27974854 63.4145874 22.24309082 64.70808105 22.20532227 66.04077148 C22 69 22 69 21 70 C14.07 70 7.14 70 0 70 C0 46.9 0 23.8 0 0 Z " fill="#10313E" transform="translate(235,247)"/>
<path d="M0 0 C1.060765 0.00303635 1.060765 0.00303635 2.14295959 0.00613403 C2.87249344 0.00517731 3.60202728 0.00422058 4.35366821 0.00323486 C5.90639837 0.00255239 7.45913135 0.00441135 9.01185608 0.00857544 C11.35575557 0.01385395 13.69945729 0.00866909 16.04335022 0.00222778 C36.98572198 -0.00854447 36.98572198 -0.00854447 44.95936584 3.13894653 C44.95936584 3.79894653 44.95936584 4.45894653 44.95936584 5.13894653 C45.79467834 5.20082153 45.79467834 5.20082153 46.64686584 5.26394653 C50.75270081 6.81750571 52.94307839 10.51288661 55.20936584 14.13894653 C58.02024577 21.63462634 57.70469573 29.72655585 54.95936584 37.13894653 C52.30541609 41.97292644 49.50396437 44.14364296 44.95936584 47.13894653 C44.95936584 48.12894653 44.95936584 49.11894653 44.95936584 50.13894653 C45.61936584 50.13894653 46.27936584 50.13894653 46.95936584 50.13894653 C52.00898591 56.25575434 55.96693817 63.3070732 59.95936584 70.13894653 C56.20977368 70.28422758 52.46090479 70.37300934 48.70936584 70.45144653 C47.64588928 70.49334106 46.58241272 70.5352356 45.48670959 70.57839966 C37.61266241 70.70220543 37.61266241 70.70220543 34.52186584 68.03738403 C33.74842834 66.60265747 33.74842834 66.60265747 32.95936584 65.13894653 C32.18553378 64.04268445 31.39828299 62.95580846 30.59999084 61.87722778 C29.80119099 60.73664635 29.00433547 59.59470089 28.20936584 58.45144653 C27.79815491 57.87072388 27.38694397 57.29000122 26.96327209 56.69168091 C23.95936584 52.37543688 23.95936584 52.37543688 23.95936584 50.13894653 C21.31936584 50.13894653 18.67936584 50.13894653 15.95936584 50.13894653 C15.96722107 50.99444092 15.96722107 50.99444092 15.97523499 51.86721802 C15.99594806 54.43694977 16.00900775 57.006664 16.02186584 59.57644653 C16.03024475 60.47427856 16.03862366 61.3721106 16.04725647 62.29714966 C16.05209045 63.57815552 16.05209045 63.57815552 16.05702209 64.88504028 C16.06487732 66.0711792 16.06487732 66.0711792 16.07289124 67.28128052 C15.95936584 69.13894653 15.95936584 69.13894653 14.95936584 70.13894653 C13.3976384 70.22580256 11.8320724 70.24596873 10.26795959 70.23660278 C9.32372131 70.23338013 8.37948303 70.23015747 7.40663147 70.22683716 C6.41340881 70.21845825 5.42018616 70.21007935 4.39686584 70.20144653 C3.399776 70.19693481 2.40268616 70.1924231 1.37538147 70.18777466 C-1.09668264 70.1759466 -3.56862933 70.15946503 -6.04063416 70.13894653 C-6.06375982 61.15973876 -6.08155038 52.18054117 -6.09244633 43.20131016 C-6.09767467 39.03231826 -6.10477142 34.86334667 -6.11607361 30.69436646 C-6.12690424 26.67436968 -6.13291136 22.65439249 -6.1355114 18.63438225 C-6.13736533 17.09731678 -6.14098534 15.56025244 -6.14636421 14.02319527 C-6.15357699 11.87759167 -6.154625 9.73206998 -6.15415955 7.5864563 C-6.15638016 6.36289932 -6.15860077 5.13934235 -6.16088867 3.87870789 C-5.95639026 -0.78038409 -4.19470283 0.02039379 0 0 Z M16.95936584 17.13894653 C13.46809734 22.37584929 14.90225691 28.21067963 15.95936584 34.13894653 C18.18792159 34.22036873 20.41734239 34.27832732 22.64686584 34.32644653 C23.88823303 34.36125122 25.12960022 34.39605591 26.40858459 34.43191528 C30.18086228 34.12067125 31.96958586 33.39362465 34.95936584 31.13894653 C36.73972125 28.71118916 36.99230973 27.58917962 36.77186584 24.57644653 C35.8708945 21.87353251 35.22319526 20.8368186 32.95936584 19.13894653 C29.29160952 17.40995222 26.31844437 16.84300825 22.27186584 16.82644653 C21.31924866 16.80968872 20.36663147 16.79293091 19.38514709 16.77566528 C18.58463928 16.8955481 17.78413147 17.01543091 16.95936584 17.13894653 Z " fill="#10313E" transform="translate(347.04063415527344,326.8610534667969)"/>
<path d="M0 0 C0.83577072 -0.00570007 1.67154144 -0.01140015 2.53263855 -0.01727295 C4.31235482 -0.02674717 6.09208883 -0.03326649 7.87182617 -0.03710938 C10.55615626 -0.04669884 13.23968185 -0.07764809 15.92382812 -0.109375 C39.61849132 -0.25857355 39.61849132 -0.25857355 46.79296875 6.203125 C46.79296875 6.863125 46.79296875 7.523125 46.79296875 8.203125 C47.45296875 8.203125 48.11296875 8.203125 48.79296875 8.203125 C49.44389465 9.45048067 50.08848544 10.70114332 50.73046875 11.953125 C51.26994141 12.99726563 51.26994141 12.99726563 51.8203125 14.0625 C54.70191988 20.40435078 54.84436794 27.87556806 52.60546875 34.453125 C50.56970152 39.17457577 47.98152074 43.24683689 43.12890625 45.3671875 C42.35804688 45.64304687 41.5871875 45.91890625 40.79296875 46.203125 C42.33339579 48.37068241 43.87510732 50.53730103 45.41796875 52.703125 C45.87220215 53.3415332 46.32643555 53.97994141 46.79443359 54.63769531 C49.7235768 58.74245269 52.71296804 62.78654951 55.83203125 66.75 C56.79296875 68.203125 56.79296875 68.203125 56.79296875 70.203125 C37.26677589 72.42478485 37.26677589 72.42478485 31.77050781 68.90966797 C28.13802815 65.22810074 25.97770782 60.84314325 23.79296875 56.203125 C22.48112047 53.34085085 22.48112047 53.34085085 20.79296875 51.203125 C18.53957377 50.3925054 18.53957377 50.3925054 16.10546875 50.390625 C15.29722656 50.34292969 14.48898438 50.29523438 13.65625 50.24609375 C13.04136719 50.23191406 12.42648438 50.21773438 11.79296875 50.203125 C11.95796875 51.028125 12.12296875 51.853125 12.29296875 52.703125 C13.17405929 58.87075875 12.82281576 64.02404295 11.79296875 70.203125 C4.86296875 70.203125 -2.06703125 70.203125 -9.20703125 70.203125 C-9.22958424 61.22391394 -9.24794747 52.24472155 -9.25884342 43.26548862 C-9.26407176 39.09649672 -9.27116851 34.92752513 -9.2824707 30.75854492 C-9.29330133 26.73854814 -9.29930846 22.71857095 -9.30190849 18.69856071 C-9.30376243 17.16149525 -9.30738244 15.62443091 -9.31276131 14.08737373 C-9.31997409 11.94177013 -9.32102209 9.79624845 -9.32055664 7.65063477 C-9.32277725 6.42707779 -9.32499786 5.20352081 -9.32728577 3.94288635 C-9.08197304 -1.646079 -4.48890279 0.02354432 0 0 Z M11.79296875 17.203125 C11.79296875 22.813125 11.79296875 28.423125 11.79296875 34.203125 C22.20951481 34.65150946 22.20951481 34.65150946 31.79296875 31.203125 C33.94197174 27.24895949 34.05202964 24.48393204 32.79296875 20.203125 C32.13296875 20.203125 31.47296875 20.203125 30.79296875 20.203125 C30.79296875 19.543125 30.79296875 18.883125 30.79296875 18.203125 C24.39924458 17.23803456 18.26085633 17.12227641 11.79296875 17.203125 Z " fill="#0C2E3A" transform="translate(103.20703125,246.796875)"/>
<path d="M0 0 C9.19875 -0.020625 18.3975 -0.04125 27.875 -0.0625 C30.78038574 -0.071604 33.68577148 -0.08070801 36.67919922 -0.09008789 C38.97102817 -0.09300732 41.26285765 -0.09555581 43.5546875 -0.09765625 C45.35305054 -0.1053302 45.35305054 -0.1053302 47.18774414 -0.11315918 C48.32445557 -0.11328003 49.46116699 -0.11340088 50.63232422 -0.11352539 C51.62271698 -0.115746 52.61310974 -0.11796661 53.6335144 -0.12025452 C56 0 56 0 58 1 C57.855625 1.969375 57.71125 2.93875 57.5625 3.9375 C56.96105554 8.28126556 56.48426503 12.64161474 56 17 C44.12 17 32.24 17 20 17 C20 20.3 20 23.6 20 27 C30.89 27 41.78 27 53 27 C53 32.28 53 37.56 53 43 C42.11 43 31.22 43 20 43 C20 46.3 20 49.6 20 53 C32.21 53 44.42 53 57 53 C57 58.61 57 64.22 57 70 C38.19 70 19.38 70 0 70 C0 46.9 0 23.8 0 0 Z " fill="#082B38" transform="translate(168,247)"/>
<path d="M0 0 C0.83265381 0.00523682 1.66530762 0.01047363 2.52319336 0.01586914 C3.42231445 0.0190918 4.32143555 0.02231445 5.24780273 0.02563477 C6.66609375 0.03820312 6.66609375 0.03820312 8.11303711 0.05102539 C9.06243164 0.05553711 10.01182617 0.06004883 10.98999023 0.06469727 C13.34356776 0.07652429 15.69702188 0.09300514 18.05053711 0.11352539 C22.34352246 9.33163292 26.2099506 18.70118769 30.05053711 28.11352539 C32.95179958 35.21141522 35.98340411 42.23895463 39.11303711 49.23852539 C47.05053711 67.00780653 47.05053711 67.00780653 47.05053711 70.11352539 C40.12053711 70.11352539 33.19053711 70.11352539 26.05053711 70.11352539 C24.40053711 66.48352539 22.75053711 62.85352539 21.05053711 59.11352539 C12.47053711 59.11352539 3.89053711 59.11352539 -4.94946289 59.11352539 C-7.71324752 64.50426222 -7.71324752 64.50426222 -9.94946289 70.11352539 C-16.87946289 70.11352539 -23.80946289 70.11352539 -30.94946289 70.11352539 C-28.93006707 64.05533794 -26.8828991 58.11457556 -24.57446289 52.17602539 C-24.26774658 51.38534668 -23.96103027 50.59466797 -23.64501953 49.7800293 C-21.73868279 44.93469444 -19.61111037 40.31719681 -17.18774414 35.70727539 C-15.2884746 31.72899472 -13.84006575 27.58789697 -12.33129883 23.45068359 C-10.43016665 18.28358204 -8.346611 13.21867258 -6.13696289 8.17602539 C-5.83483887 7.4836377 -5.53271484 6.79125 -5.22143555 6.07788086 C-2.59789366 0.15128623 -2.59789366 0.15128623 0 0 Z M7.05053711 24.11352539 C6.04634074 26.57022009 5.0470321 29.02870892 4.05053711 31.48852539 C3.76436523 32.18719727 3.47819336 32.88586914 3.18334961 33.60571289 C1.60529312 37.242385 1.60529312 37.242385 1.05053711 41.11352539 C5.34053711 41.11352539 9.63053711 41.11352539 14.05053711 41.11352539 C12.72647785 35.04492046 10.72203419 29.7158882 8.05053711 24.11352539 C7.72053711 24.11352539 7.39053711 24.11352539 7.05053711 24.11352539 Z " fill="#12333F" transform="translate(120.949462890625,326.886474609375)"/>
<path d="M0 0 C0.79075928 0.00523682 1.58151855 0.01047363 2.39624023 0.01586914 C3.67724609 0.02070313 3.67724609 0.02070313 4.98413086 0.02563477 C5.88196289 0.03401367 6.77979492 0.04239258 7.70483398 0.05102539 C8.6065332 0.05553711 9.50823242 0.06004883 10.43725586 0.06469727 C12.67234712 0.07652315 14.90730835 0.09300319 17.14233398 0.11352539 C21.19963685 7.97716394 24.82719734 15.91179123 28.14233398 24.11352539 C31.02702501 31.16718769 34.03367179 38.15624979 37.14233398 45.11352539 C45.6641541 64.20080586 45.6641541 64.20080586 47.14233398 70.11352539 C40.21233398 70.11352539 33.28233398 70.11352539 26.14233398 70.11352539 C22.14233398 62.11352539 22.14233398 62.11352539 21.14233398 59.11352539 C12.56233398 59.11352539 3.98233398 59.11352539 -4.85766602 59.11352539 C-6.83766602 62.74352539 -8.81766602 66.37352539 -10.85766602 70.11352539 C-17.45766602 70.11352539 -24.05766602 70.11352539 -30.85766602 70.11352539 C-28.8382702 64.05533794 -26.79110222 58.11457556 -24.48266602 52.17602539 C-24.17594971 51.38534668 -23.8692334 50.59466797 -23.55322266 49.7800293 C-21.64688591 44.93469444 -19.51931349 40.31719681 -17.09594727 35.70727539 C-15.19667773 31.72899472 -13.74826888 27.58789697 -12.23950195 23.45068359 C-10.33836977 18.28358204 -8.25481413 13.21867258 -6.04516602 8.17602539 C-5.74304199 7.4836377 -5.44091797 6.79125 -5.12963867 6.07788086 C-2.50694576 0.15320407 -2.50694576 0.15320407 0 0 Z M7.14233398 24.11352539 C6.32400676 26.00685073 5.51291131 27.90330272 4.70483398 29.80102539 C4.25237305 30.85676758 3.79991211 31.91250977 3.33374023 33.00024414 C2.28785944 35.73325068 1.6071265 38.23394876 1.14233398 41.11352539 C5.87212028 41.8857354 10.35497026 42.15950247 15.14233398 42.11352539 C14.19065577 39.48593586 13.23136277 36.86158046 12.26733398 34.23852539 C11.99791992 33.4921582 11.72850586 32.74579102 11.45092773 31.97680664 C9.90626838 27.67882457 9.90626838 27.67882457 7.14233398 24.11352539 Z " fill="#0B2D3A" transform="translate(288.857666015625,326.886474609375)"/>
<path d="M0 0 C4.54133047 2.37223901 8.37297852 5.52433431 11.70703125 9.4140625 C11.70703125 10.0740625 11.70703125 10.7340625 11.70703125 11.4140625 C12.36703125 11.4140625 13.02703125 11.4140625 13.70703125 11.4140625 C13.4080391 15.00196825 12.93716524 16.19573026 10.26953125 18.7265625 C7.70703125 20.4140625 7.70703125 20.4140625 5.70703125 20.4140625 C5.70703125 21.0740625 5.70703125 21.7340625 5.70703125 22.4140625 C2.4791157 24.5660062 1.42302316 24.61492693 -2.29296875 24.4140625 C-2.29296875 23.7540625 -2.29296875 23.0940625 -2.29296875 22.4140625 C-2.95296875 22.4140625 -3.61296875 22.4140625 -4.29296875 22.4140625 C-4.29296875 21.7540625 -4.29296875 21.0940625 -4.29296875 20.4140625 C-5.95281673 19.73059568 -7.6213368 19.06817935 -9.29296875 18.4140625 C-10.24171875 18.0221875 -11.19046875 17.6303125 -12.16796875 17.2265625 C-15.92586836 16.2495086 -18.5064475 16.65675825 -22.29296875 17.4140625 C-23.26234375 17.5996875 -24.23171875 17.7853125 -25.23046875 17.9765625 C-25.91109375 18.1209375 -26.59171875 18.2653125 -27.29296875 18.4140625 C-27.29296875 19.0740625 -27.29296875 19.7340625 -27.29296875 20.4140625 C-27.95296875 20.4140625 -28.61296875 20.4140625 -29.29296875 20.4140625 C-29.29296875 21.0740625 -29.29296875 21.7340625 -29.29296875 22.4140625 C-29.95296875 22.4140625 -30.61296875 22.4140625 -31.29296875 22.4140625 C-32.36052232 29.7534933 -33.1704108 37.13897456 -31.29296875 44.4140625 C-30.63296875 44.4140625 -29.97296875 44.4140625 -29.29296875 44.4140625 C-29.29296875 45.0740625 -29.29296875 45.7340625 -29.29296875 46.4140625 C-28.63296875 46.4140625 -27.97296875 46.4140625 -27.29296875 46.4140625 C-27.29296875 47.0740625 -27.29296875 47.7340625 -27.29296875 48.4140625 C-21.00374853 50.51046924 -15.51408274 51.67724446 -9.10546875 49.1640625 C-6.22289697 47.46893465 -6.22289697 47.46893465 -3.66796875 45.1640625 C-1.29296875 43.4140625 -1.29296875 43.4140625 1.01953125 43.6640625 C1.57640625 43.9115625 2.13328125 44.1590625 2.70703125 44.4140625 C2.70703125 45.0740625 2.70703125 45.7340625 2.70703125 46.4140625 C3.2896875 46.67960937 3.87234375 46.94515625 4.47265625 47.21875 C6.76877353 48.44709246 8.51059143 49.81721189 10.45703125 51.5390625 C11.070625 52.07789063 11.68421875 52.61671875 12.31640625 53.171875 C12.7753125 53.58179688 13.23421875 53.99171875 13.70703125 54.4140625 C10.23146912 61.83698252 4.36059285 65.20362074 -2.79296875 68.6015625 C-5.96664834 69.63300837 -8.98427196 70.14179049 -12.29296875 70.4140625 C-13.20949219 70.51460938 -14.12601563 70.61515625 -15.0703125 70.71875 C-25.13384336 71.34072348 -32.51696297 67.83022972 -41.29296875 63.4140625 C-41.29296875 62.7540625 -41.29296875 62.0940625 -41.29296875 61.4140625 C-42.12828125 61.135625 -42.12828125 61.135625 -42.98046875 60.8515625 C-49.45062901 56.82957099 -51.59060002 49.80531014 -53.5703125 42.82421875 C-55.98553007 31.42700287 -54.39934217 20.57567805 -48.12109375 10.77734375 C-42.87007757 3.98917112 -36.46217306 0.54658571 -28.29296875 -1.5859375 C-19.58656471 -4.48807218 -8.4231926 -3.20334821 0 0 Z " fill="#10313E" transform="translate(242.29296875,328.5859375)"/>
<path d="M0 0 C8.32729351 -0.02255403 16.65456344 -0.04091682 24.98187923 -0.05181217 C28.84820118 -0.05704026 32.71450121 -0.06413654 36.58081055 -0.07543945 C40.30903401 -0.086271 44.03723634 -0.0922774 47.76547432 -0.09487724 C49.19089656 -0.09673101 50.61631759 -0.10035071 52.04173088 -0.10573006 C54.03163408 -0.11294393 56.02155834 -0.11340808 58.01147461 -0.11352539 C59.14620712 -0.115746 60.28093964 -0.11796661 61.45005798 -0.12025452 C64 0 64 0 65 1 C65.09975032 3.51136104 65.13882183 5.98903415 65.125 8.5 C65.12886719 9.20253906 65.13273437 9.90507812 65.13671875 10.62890625 C65.12661378 15.87338622 65.12661378 15.87338622 64 17 C56.74 17 49.48 17 42 17 C42 34.49 42 51.98 42 70 C35.4 70 28.8 70 22 70 C22 52.51 22 35.02 22 17 C14.74 17 7.48 17 0 17 C0 11.39 0 5.78 0 0 Z " fill="#092A37" transform="translate(311,247)"/>
<path d="M0 0 C2.66095834 0.01071494 5.32123977 0.00004231 7.98217773 -0.01269531 C42.07633039 -0.04191763 72.06005482 10.19170418 100.23022461 29.26074219 C101.22022461 29.92074219 102.21022461 30.58074219 103.23022461 31.26074219 C98.20373158 32.83152126 93.46902539 33.70928947 88.23022461 34.26074219 C89.22022461 35.25074219 90.21022461 36.24074219 91.23022461 37.26074219 C90.90022461 38.25074219 90.57022461 39.24074219 90.23022461 40.26074219 C88.25022461 40.26074219 86.27022461 40.26074219 84.23022461 40.26074219 C85.22022461 39.93074219 86.21022461 39.60074219 87.23022461 39.26074219 C87.23022461 38.60074219 87.23022461 37.94074219 87.23022461 37.26074219 C86.24022461 36.92042969 86.24022461 36.92042969 85.23022461 36.57324219 C82.23022461 35.26074219 82.23022461 35.26074219 78.98022461 33.13574219 C63.61013113 23.37053242 46.5683769 17.65154049 28.61157227 15.24780273 C24.53068031 14.69533541 20.99963232 14.03591415 17.23022461 12.26074219 C17.23022461 11.60074219 17.23022461 10.94074219 17.23022461 10.26074219 C15.25022461 10.59074219 13.27022461 10.92074219 11.23022461 11.26074219 C10.90022461 12.58074219 10.57022461 13.90074219 10.23022461 15.26074219 C7.28940337 14.63056621 4.90990988 13.60058482 2.23022461 12.26074219 C1.57022461 12.26074219 0.91022461 12.26074219 0.23022461 12.26074219 C0.23022461 14.57074219 0.23022461 16.88074219 0.23022461 19.26074219 C-0.09977539 19.26074219 -0.42977539 19.26074219 -0.76977539 19.26074219 C-1.26477539 16.29074219 -1.26477539 16.29074219 -1.76977539 13.26074219 C-20.19054536 12.74265803 -36.52470498 15.68960317 -53.76977539 22.26074219 C-53.76977539 20.92740885 -53.76977539 19.59407552 -53.76977539 18.26074219 C-54.42977539 17.93074219 -55.08977539 17.60074219 -55.76977539 17.26074219 C-54.77977539 15.77574219 -54.77977539 15.77574219 -53.76977539 14.26074219 C-53.10977539 14.26074219 -52.44977539 14.26074219 -51.76977539 14.26074219 C-51.48102539 13.64199219 -51.19227539 13.02324219 -50.89477539 12.38574219 C-49.76977539 10.26074219 -49.76977539 10.26074219 -47.76977539 8.26074219 C-48.09977539 7.60074219 -48.42977539 6.94074219 -48.76977539 6.26074219 C-46.41824965 5.62419251 -44.06420448 5.00173292 -41.70727539 4.38574219 C-41.06983398 4.21171875 -40.43239258 4.03769531 -39.77563477 3.85839844 C-26.62784892 0.46136286 -13.49338845 -0.06443716 0 0 Z " fill="#DD3A3B" transform="translate(210.769775390625,118.7392578125)"/>
<path d="M0 0 C0.78375 0.598125 1.5675 1.19625 2.375 1.8125 C6.76840318 7.72669659 7.742501 14.81365101 7 22 C5.82424156 27.98567936 3.08207925 32.81222538 0 38 C-0.66 38 -1.32 38 -2 38 C-2 38.66 -2 39.32 -2 40 C-6.62891905 42.52593299 -10.66419304 44.56442392 -16 45 C-16.66644531 45.06316406 -17.33289063 45.12632812 -18.01953125 45.19140625 C-25.1235424 45.57708812 -30.73736779 43.13131611 -37 40 C-37 39.34 -37 38.68 -37 38 C-37.66 38 -38.32 38 -39 38 C-39 37.34 -39 36.68 -39 36 C-39.66 36 -40.32 36 -41 36 C-45.90148317 28.09438199 -47.18497565 20.62863435 -45.25 11.4375 C-42.27924491 3.2679235 -38.4823511 -1.48876077 -31 -6 C-20.40290706 -10.74438656 -8.50907549 -7.06936206 0 0 Z M-27.8203125 12.86328125 C-29.86556341 16.5677589 -30.00510153 19.92629303 -29 24 C-26.48344371 27.73670479 -25.03518599 28.78912878 -20.625 29.6875 C-16.51200422 28.90744908 -14.35140882 27.8218439 -11.3125 25 C-8.87745987 21.28946266 -9.47072121 17.25103281 -10 13 C-10.66 13 -11.32 13 -12 13 C-12.33 12.01 -12.66 11.02 -13 10 C-19.52149021 6.55810239 -23.32647227 7.12373919 -27.8203125 12.86328125 Z " fill="#DD3B3C" transform="translate(166,192)"/>
<path d="M0 0 C5.66523231 4.01174345 10.2981911 8.07931047 12 15 C12.87705272 23.56813039 11.87926489 30.3193671 8 38 C7.505 38.99 7.505 38.99 7 40 C6.34 40 5.68 40 5 40 C5 40.66 5 41.32 5 42 C4.34 42 3.68 42 3 42 C3 42.66 3 43.32 3 44 C1.75264433 44.6509259 0.50198168 45.29551669 -0.75 45.9375 C-1.44609375 46.29714844 -2.1421875 46.65679687 -2.859375 47.02734375 C-10.17412758 50.35101782 -18.10061046 49.58117414 -25.57421875 47.10546875 C-32.42642743 43.9828036 -36.88920604 38.71931496 -40 32 C-42.42614251 24.11503686 -40.90709097 16.50776245 -38 9 C-37.34 8.01 -36.68 7.02 -36 6 C-35.34 6 -34.68 6 -34 6 C-34 5.34 -34 4.68 -34 4 C-33.34 4 -32.68 4 -32 4 C-32 3.34 -32 2.68 -32 2 C-22.18181723 -3.85314742 -10.55651237 -5.7062229 0 0 Z M-22 16 C-24.66773607 20.0016041 -24.71478813 23.29431148 -24 28 C-22.12379387 30.50160818 -20.76108697 31.61945652 -18 33 C-12.72274989 33.59968751 -10.11292798 32.27164725 -6 29 C-3.86413322 25.79619983 -3.76867825 24.98060033 -3.875 21.3125 C-3.90207031 20.10013672 -3.90207031 20.10013672 -3.9296875 18.86328125 C-3.95289063 18.24839844 -3.97609375 17.63351563 -4 17 C-4.66 17 -5.32 17 -6 17 C-6 16.34 -6 15.68 -6 15 C-12.76947971 11.22168575 -16.16591711 10.48127294 -22 16 Z " fill="#DE383A" transform="translate(362,188)"/>
<path d="M0 0 C0.33 0 0.66 0 1 0 C1.33 1.98 1.66 3.96 2 6 C2.66 6 3.32 6 4 6 C4 7.32 4 8.64 4 10 C3.34 10 2.68 10 2 10 C2 11.32 2 12.64 2 14 C45.56 14.33 89.12 14.66 134 15 C134.33 14.34 134.66 13.68 135 13 C135.33 14.32 135.66 15.64 136 17 C91.12 17 46.24 17 0 17 C-0.86626993 12.66865037 -0.98617411 9.97131602 -0.5625 5.6875 C-0.46066406 4.61886719 -0.35882813 3.55023438 -0.25390625 2.44921875 C-0.17011719 1.64097656 -0.08632812 0.83273438 0 0 Z " fill="#C85251" transform="translate(179,204)"/>
<path d="M0 0 C0 0.66 0 1.32 0 2 C-0.66386719 2.12117188 -1.32773438 2.24234375 -2.01171875 2.3671875 C-8.75052474 3.46485056 -8.75052474 3.46485056 -15 6 C-15.88693303 8.04105639 -15.88693303 8.04105639 -16 10 C-13.13221824 10.11780001 -13.13221824 10.11780001 -10.9375 9.5 C-7.31603628 8.88358064 -3.86997209 9.02286461 -0.20703125 9.16015625 C2.20938316 9.22666666 2.20938316 9.22666666 4 7 C5.67460535 7.2908364 7.33990013 7.63536688 9 8 C11.61481958 8.06774144 14.19979256 8.09500258 16.8125 8.0625 C17.50537109 8.05798828 18.19824219 8.05347656 18.91210938 8.04882812 C20.60811068 8.03713156 22.30406703 8.01919924 24 8 C25.4783226 10.95664519 25.06032783 13.74229737 25 17 C24.67 17 24.34 17 24 17 C23.505 14.03 23.505 14.03 23 11 C4.57923003 10.48191584 -11.75492959 13.42886099 -29 20 C-29 18.66666667 -29 17.33333333 -29 16 C-29.66 15.67 -30.32 15.34 -31 15 C-30.34 14.01 -29.68 13.02 -29 12 C-28.34 12 -27.68 12 -27 12 C-26.71125 11.38125 -26.4225 10.7625 -26.125 10.125 C-25 8 -25 8 -23 6 C-23.33 5.34 -23.66 4.68 -24 4 C-21.50276548 3.32114013 -19.00303859 2.65682573 -16.5 2 C-15.80390625 1.80921875 -15.1078125 1.6184375 -14.390625 1.421875 C-9.4587081 0.14322988 -5.09419909 -0.18357474 0 0 Z M5 7 C7 8 7 8 7 8 Z " fill="#DC4042" transform="translate(186,121)"/>
<path d="M0 0 C5.18838528 2.63361806 8.31016326 7.54120233 10.68359375 12.74609375 C12.99415942 19.91870281 12.78435143 27.04296592 12.578125 34.484375 C12.5716171 37.66673591 12.94152351 40.22362143 13.5703125 43.3046875 C12.3203125 45.1171875 12.3203125 45.1171875 10.5703125 46.3046875 C9.5803125 46.3046875 8.5903125 46.3046875 7.5703125 46.3046875 C7.2403125 45.3146875 6.9103125 44.3246875 6.5703125 43.3046875 C5.9103125 42.6446875 5.2503125 41.9846875 4.5703125 41.3046875 C4.5703125 40.3146875 4.5703125 39.3246875 4.5703125 38.3046875 C5.2303125 38.3046875 5.8903125 38.3046875 6.5703125 38.3046875 C6.9003125 37.6446875 7.2303125 36.9846875 7.5703125 36.3046875 C8.2303125 35.6446875 8.8903125 34.9846875 9.5703125 34.3046875 C9.92938144 31.05210786 9.92938144 31.05210786 9.8828125 27.3671875 C9.89957031 26.12066406 9.91632813 24.87414062 9.93359375 23.58984375 C9.53662141 20.00001861 9.12640505 19.56403052 6.5703125 17.3046875 C6.5703125 15.9846875 6.5703125 14.6646875 6.5703125 13.3046875 C5.9103125 12.9746875 5.2503125 12.6446875 4.5703125 12.3046875 C4.9003125 13.2946875 5.2303125 14.2846875 5.5703125 15.3046875 C4.5803125 15.6346875 3.5903125 15.9646875 2.5703125 16.3046875 C2.0959375 15.4178125 1.6215625 14.5309375 1.1328125 13.6171875 C-2.53150461 8.14013402 -8.66429789 5.55446723 -14.9296875 4.1796875 C-16.0846875 3.8909375 -17.2396875 3.6021875 -18.4296875 3.3046875 C-18.7596875 2.3146875 -19.0896875 1.3246875 -19.4296875 0.3046875 C-12.9622962 0.17787591 -12.9622962 0.17787591 -9.8046875 0.9296875 C-7.35130274 1.53204192 -7.35130274 1.53204192 -4.9296875 0.2421875 C-2.4296875 -0.6953125 -2.4296875 -0.6953125 0 0 Z " fill="#D95B5D" transform="translate(403.4296875,170.6953125)"/>
<path d="M0 0 C-0.33 1.65 -0.66 3.3 -1 5 C-1.66 4.34 -2.32 3.68 -3 3 C-3.66 3.66 -4.32 4.32 -5 5 C-4.608125 5.556875 -4.21625 6.11375 -3.8125 6.6875 C-3.544375 7.450625 -3.27625 8.21375 -3 9 C-4.375 11.75 -4.375 11.75 -6 14 C-3.69 14 -1.38 14 1 14 C1 14.33 1 14.66 1 15 C-0.98 15.66 -2.96 16.32 -5 17 C-5.33 18.98 -5.66 20.96 -6 23 C-5.01 23.33 -4.02 23.66 -3 24 C-4.32 24 -5.64 24 -7 24 C-7.2165625 22.6078125 -7.2165625 22.6078125 -7.4375 21.1875 C-7.92100111 17.99274889 -7.92100111 17.99274889 -9 15 C-9.99 15 -10.98 15 -12 15 C-12 18.96 -12 22.92 -12 27 C-12.66 27.33 -13.32 27.66 -14 28 C-15.13350534 30.01669827 -15.13350534 30.01669827 -16 32 C-17.14455417 28.56633748 -16.54736918 26.97206613 -15.59765625 23.58203125 C-14.85296851 20.36478554 -14.50936225 17.15419867 -14.125 13.875 C-13.37870516 8.47159392 -12.8298993 4.939325 -9 1 C-5.65644288 -0.92254535 -3.63377582 -1.3458429 0 0 Z " fill="#D34448" transform="translate(98,155)"/>
<path d="M0 0 C1.47599073 0.04233482 2.95182482 0.09035829 4.42749023 0.14282227 C5.20293686 0.16643326 5.97838348 0.19004425 6.77732849 0.21437073 C9.26375833 0.29118741 11.74989067 0.37513351 14.23608398 0.45922852 C15.91770986 0.51243122 17.59935042 0.56517172 19.28100586 0.61743164 C23.41205504 0.74682672 27.54285101 0.88261792 31.67358398 1.02172852 C31.67358398 1.35172852 31.67358398 1.68172852 31.67358398 2.02172852 C20.45358398 2.02172852 9.23358398 2.02172852 -2.32641602 2.02172852 C-1.99641602 3.01172852 -1.66641602 4.00172852 -1.32641602 5.02172852 C-1.23730428 7.06139332 -1.20881556 9.10390138 -1.21289062 11.14550781 C-1.21296616 12.40658859 -1.21304169 13.66766937 -1.21311951 14.96696472 C-1.21822613 16.34329264 -1.22344212 17.71962015 -1.22875977 19.09594727 C-1.23062516 20.50413462 -1.23204849 21.91232263 -1.23304749 23.32051086 C-1.23686314 27.02440181 -1.2466853 30.72825347 -1.25775146 34.43212891 C-1.26798605 38.21264108 -1.27254949 41.99315961 -1.27758789 45.77368164 C-1.28830842 53.18971517 -1.30537342 60.60571633 -1.32641602 68.02172852 C-1.98641602 68.02172852 -2.64641602 68.02172852 -3.32641602 68.02172852 C-3.4800117 59.3033773 -3.62819338 50.58495607 -3.76937962 41.866395 C-3.83510332 37.81843068 -3.90272254 33.77051618 -3.97460938 29.72265625 C-4.04385886 25.81943464 -4.10821333 21.91616075 -4.16911125 18.01280022 C-4.19326797 16.52036524 -4.21921669 15.0279582 -4.24695015 13.5355854 C-4.28536439 11.45231628 -4.31752146 9.36904064 -4.34814453 7.28564453 C-4.36813004 6.09761734 -4.38811554 4.90959015 -4.40870667 3.68556213 C-4.28636202 -0.27486099 -4.05579621 0.02649291 0 0 Z " fill="#0B1F27" transform="translate(98.326416015625,246.978271484375)"/>
<path d="M0 0 C0.66 0 1.32 0 2 0 C2.16950713 7.61294793 2.32914423 15.22605872 2.48217773 22.83935547 C2.5352856 25.42501423 2.59058688 28.01062896 2.64819336 30.59619141 C2.73098326 34.32965605 2.80567543 38.06321205 2.87890625 41.796875 C2.90594131 42.93799744 2.93297638 44.07911987 2.96083069 45.25482178 C3.09440254 52.56763804 2.75084478 59.72469172 2 67 C1.67 67 1.34 67 1 67 C-0.13726055 59.75930996 -0.12789322 52.63120431 -0.09765625 45.3125 C-0.0962413 44.01425293 -0.09482635 42.71600586 -0.09336853 41.37841797 C-0.08957825 37.95243348 -0.07977839 34.52649241 -0.06866455 31.1005249 C-0.05837479 27.59436632 -0.05385481 24.08820063 -0.04882812 20.58203125 C-0.03815246 13.7213365 -0.02111874 6.86067034 0 0 Z " fill="#49565D" transform="translate(235,248)"/>
<path d="M0 0 C0.66 0.99 1.32 1.98 2 3 C0.37660195 4.70884005 -1.29319053 6.37446717 -3 8 C-3.66 8 -4.32 8 -5 8 C-5 8.66 -5 9.32 -5 10 C-4.34 10.33 -3.68 10.66 -3 11 C-3.34224609 12.12148437 -3.34224609 12.12148437 -3.69140625 13.265625 C-3.97886719 14.25046875 -4.26632812 15.2353125 -4.5625 16.25 C-4.85253906 17.22453125 -5.14257812 18.1990625 -5.44140625 19.203125 C-6.00557527 22.02791534 -5.71036036 23.30182453 -5 26 C-5.66 26.66 -6.32 27.32 -7 28 C-7.69748583 29.31747324 -8.36959957 30.64914193 -9 32 C-12.39610092 23.5097477 -11.21701397 16.30815994 -8 8 C-7.34 7.01 -6.68 6.02 -6 5 C-5.34 5 -4.68 5 -4 5 C-4 4.34 -4 3.68 -4 3 C-3.34 3 -2.68 3 -2 3 C-2 2.34 -2 1.68 -2 1 C-1.34 0.67 -0.68 0.34 0 0 Z " fill="#D84A4A" transform="translate(332,189)"/>
<path d="M0 0 C6.41481258 -0.42765417 11.88595404 1.14256832 18 3 C18 3.33 18 3.66 18 4 C9.42857143 4.14285714 9.42857143 4.14285714 6 3 C5.13858734 5.81916869 4.76453793 7.41134483 5.875 10.1875 C8.72620417 12.61940944 11.38504347 12.88393021 15.0390625 13.41015625 C15.68617188 13.60480469 16.33328125 13.79945313 17 14 C17.33 14.99 17.66 15.98 18 17 C16.73285156 16.72285156 15.46570313 16.44570312 14.16015625 16.16015625 C12.46098785 15.79403709 10.76176622 15.42816488 9.0625 15.0625 C8.23169922 14.88009766 7.40089844 14.69769531 6.54492188 14.50976562 C1.03646777 13.33091358 -4.39185755 12.53761204 -10 12 C-10 11.67 -10 11.34 -10 11 C-9.37351563 10.97421875 -8.74703125 10.9484375 -8.1015625 10.921875 C-7.28429687 10.86515625 -6.46703125 10.8084375 -5.625 10.75 C-4.81289062 10.70359375 -4.00078125 10.6571875 -3.1640625 10.609375 C-0.84690237 10.21849868 -0.84690237 10.21849868 0.1640625 8.140625 C0.43992188 7.43421875 0.71578125 6.7278125 1 6 C1.66 5.01 2.32 4.02 3 3 C2.01 2.67 1.02 2.34 0 2 C0 1.34 0 0.68 0 0 Z " fill="#D74044" transform="translate(243,121)"/>
<path d="M0 0 C0.33 0 0.66 0 1 0 C1 4.95 1 9.9 1 15 C-17.15 15 -35.3 15 -54 15 C-50.73621267 12.82414178 -49.84095685 12.75394984 -46.06958008 12.77294922 C-45.06876907 12.77310028 -44.06795807 12.77325134 -43.03681946 12.77340698 C-41.4195118 12.78889084 -41.4195118 12.78889084 -39.76953125 12.8046875 C-38.11119514 12.80893234 -38.11119514 12.80893234 -36.4193573 12.81326294 C-32.88362872 12.82446998 -29.3481522 12.84957573 -25.8125 12.875 C-23.41732136 12.88502911 -21.02213876 12.89415508 -18.62695312 12.90234375 C-12.75120476 12.92441107 -6.87564514 12.9589447 -1 13 C-0.505 6.565 -0.505 6.565 0 0 Z " fill="#031920" transform="translate(223,302)"/>
<path d="M0 0 C2.23407688 1.23462144 3.71642566 2.3920455 5.375 4.3125 C5.045 4.9725 4.715 5.6325 4.375 6.3125 C3.385 6.6425 2.395 6.9725 1.375 7.3125 C0.64176204 9.32758358 0.64176204 9.32758358 0.375 11.3125 C-0.32625 10.90257812 -1.0275 10.49265625 -1.75 10.0703125 C-8.20460478 6.3661294 -8.20460478 6.3661294 -15.25 4.125 C-16.36375 3.856875 -17.4775 3.58875 -18.625 3.3125 C-18.955 2.3225 -19.285 1.3325 -19.625 0.3125 C-13.1576087 0.18568841 -13.1576087 0.18568841 -10 0.9375 C-7.54661524 1.53985442 -7.54661524 1.53985442 -5.125 0.25 C-2.625 -0.6875 -2.625 -0.6875 0 0 Z " fill="#DD5D60" transform="translate(403.625,170.6875)"/>
<path d="M0 0 C5.67830078 -0.02464705 11.35657069 -0.04283462 17.03491211 -0.05493164 C18.96818585 -0.05997256 20.90145576 -0.06680519 22.8347168 -0.07543945 C25.60726872 -0.08751565 28.37977041 -0.09323057 31.15234375 -0.09765625 C32.45702858 -0.10539818 32.45702858 -0.10539818 33.78807068 -0.11329651 C35.85905814 -0.11349185 37.92994324 -0.06208168 40 0 C41.75559942 1.75559942 41.13221919 4.03582442 41.13671875 6.37109375 C41.13285156 7.07363281 41.12898438 7.77617187 41.125 8.5 C41.13080078 9.55380859 41.13080078 9.55380859 41.13671875 10.62890625 C41.12661378 15.87338622 41.12661378 15.87338622 40 17 C37.17413249 17.15322744 34.38956118 17.23162755 31.5625 17.25 C30.77294922 17.270625 29.98339844 17.29125 29.16992188 17.3125 C26.87890625 17.328125 26.87890625 17.328125 23 17 C22.34 16.01 21.68 15.02 21 14 C27.93 14.495 27.93 14.495 35 15 C35 14.34 35 13.68 35 13 C35.66 13 36.32 13 37 13 C37 13.66 37 14.32 37 15 C37.66 15 38.32 15 39 15 C39 10.38 39 5.76 39 1 C26.13 1 13.26 1 0 1 C0 0.67 0 0.34 0 0 Z " fill="#54636A" transform="translate(335,247)"/>
<path d="M0 0 C2 1 2 1 2 1 Z M-2 0 C-0.75863281 0.24556641 -0.75863281 0.24556641 0.5078125 0.49609375 C4.32194189 1.0464547 8.03353501 1.11089055 11.875 1.0625 C12.56335938 1.05798828 13.25171875 1.05347656 13.9609375 1.04882812 C15.64066335 1.03716336 17.32034375 1.01923271 19 1 C20.4783226 3.95664519 20.06032783 6.74229737 20 10 C19.67 10 19.34 10 19 10 C18.505 7.03 18.505 7.03 18 4 C5.72136585 3.65466341 -5.89630564 4.92668199 -18 7 C-17.67 5.35 -17.34 3.7 -17 2 C-12.38 2 -7.76 2 -3 2 C-2.67 1.34 -2.34 0.68 -2 0 Z " fill="#D15555" transform="translate(191,128)"/>
<path d="M0 0 C12.87 0 25.74 0 39 0 C39 5.61 39 11.22 39 17 C38.67 17 38.34 17 38 17 C38 12.05 38 7.1 38 2 C34.51373047 2.14308594 34.51373047 2.14308594 30.95703125 2.2890625 C28.69661877 2.37435669 26.4361 2.45591133 24.17553711 2.53710938 C22.60898062 2.59537576 21.04256276 2.65750649 19.47631836 2.72363281 C17.2201462 2.81820719 14.96383462 2.89870334 12.70703125 2.9765625 C11.66298882 3.02485703 11.66298882 3.02485703 10.59785461 3.0741272 C6.57612728 3.1969875 3.61491953 2.79368573 0 1 C0 0.67 0 0.34 0 0 Z " fill="#243640" transform="translate(186,300)"/>
<path d="M0 0 C2.93587851 2.79361127 5.31997019 5.66938424 7.625 9 C8.21539062 9.845625 8.80578125 10.69125 9.4140625 11.5625 C11 14 11 14 13 18 C5.41 18 -2.18 18 -10 18 C-5.75197923 15.87598962 -2.83238937 15.7623893 1.75 15.875 C2.44738281 15.88402344 3.14476562 15.89304687 3.86328125 15.90234375 C5.57566958 15.92580112 7.28788004 15.96166896 9 16 C6.07117649 11.4303294 6.07117649 11.4303294 1.3125 9.3125 C0.549375 9.209375 -0.21375 9.10625 -1 9 C-0.67 6.03 -0.34 3.06 0 0 Z " fill="#384E56" transform="translate(394,379)"/>
<path d="M0 0 C10.56 0 21.12 0 32 0 C31.67 0.99 31.34 1.98 31 3 C20.15908541 4.24403938 10.76405068 3.83776475 0 2 C0 1.34 0 0.68 0 0 Z " fill="#0E2530" transform="translate(188,274)"/>
<path d="M0 0 C7.26694473 -0.02314782 14.53388154 -0.04092756 21.80085564 -0.05181217 C25.17503026 -0.05703565 28.54917971 -0.06412361 31.92333984 -0.07543945 C35.80046259 -0.08752436 39.6775494 -0.09323263 43.5546875 -0.09765625 C44.76929657 -0.10281754 45.98390564 -0.10797882 47.23532104 -0.11329651 C48.91683762 -0.11340981 48.91683762 -0.11340981 50.63232422 -0.11352539 C51.62271698 -0.115746 52.61310974 -0.11796661 53.6335144 -0.12025452 C56 0 56 0 58 1 C57.44687265 5.02992782 56.8441938 9.02022924 56 13 C53.1658781 8.83217368 54.17340036 7.78619746 55 2 C36.85 1.67 18.7 1.34 0 1 C0 0.67 0 0.34 0 0 Z " fill="#637076" transform="translate(168,247)"/>
<path d="M0 0 C3.3 1.65 6.6 3.3 10 5 C6.7188698 7.18742014 4.66915644 7.54442806 0.8125 8.125 C-0.27417969 8.29257813 -1.36085938 8.46015625 -2.48046875 8.6328125 C-3.31191406 8.75398437 -4.14335937 8.87515625 -5 9 C-4.01 9.99 -3.02 10.98 -2 12 C-2.33 12.99 -2.66 13.98 -3 15 C-4.98 15 -6.96 15 -9 15 C-8.01 14.67 -7.02 14.34 -6 14 C-6 13.34 -6 12.68 -6 12 C-6.99 11.67 -7.98 11.34 -9 11 C-9 10.34 -9 9.68 -9 9 C-8.34 9 -7.68 9 -7 9 C-7.20625 8.4225 -7.4125 7.845 -7.625 7.25 C-8.08661261 4.48032433 -7.42944945 3.35438733 -6 1 C-5.34 2.32 -4.68 3.64 -4 5 C-3.34 4.67 -2.68 4.34 -2 4 C-2 4.66 -2 5.32 -2 6 C-0.35 5.67 1.3 5.34 3 5 C2.505 4.54625 2.01 4.0925 1.5 3.625 C0 2 0 2 0 0 Z " fill="#DA4246" transform="translate(304,144)"/>
<path d="M0 0 C6.23440168 1.58960332 12.16287645 3.27600901 18 6 C17.67 6.66 17.34 7.32 17 8 C14.69 7.67 12.38 7.34 10 7 C10.33 8.32 10.66 9.64 11 11 C9.02 10.34 7.04 9.68 5 9 C5 8.34 5 7.68 5 7 C4.34 7 3.68 7 3 7 C3.33 5.68 3.66 4.36 4 3 C2.68 2.67 1.36 2.34 0 2 C0 1.34 0 0.68 0 0 Z " fill="#DC4141" transform="translate(263,125)"/>
<path d="M0 0 C7.26 0 14.52 0 22 0 C22 0.33 22 0.66 22 1 C15.4 1.33 8.8 1.66 2 2 C2.33 6.29 2.66 10.58 3 15 C9.93 15.495 9.93 15.495 17 16 C17 16.33 17 16.66 17 17 C11.39 17 5.78 17 0 17 C0 11.39 0 5.78 0 0 Z " fill="#3D4D54" transform="translate(311,247)"/>
<path d="M0 0 C0.33 0 0.66 0 1 0 C1 17.49 1 34.98 1 53 C-2.3 52.67 -5.6 52.34 -9 52 C-5 50 -5 50 -1 50 C-0.67 33.5 -0.34 17 0 0 Z " fill="#05202B" transform="translate(351,264)"/>
<path d="M0 0 C0.66 0.33 1.32 0.66 2 1 C1.98839844 1.61488281 1.97679687 2.22976562 1.96484375 2.86328125 C1.95582031 3.67152344 1.94679688 4.47976562 1.9375 5.3125 C1.92589844 6.11300781 1.91429687 6.91351563 1.90234375 7.73828125 C1.90342145 10.16861334 1.90342145 10.16861334 3 13 C4.04800781 13.09087891 4.04800781 13.09087891 5.1171875 13.18359375 C6.02726562 13.26738281 6.93734375 13.35117188 7.875 13.4375 C8.77992188 13.51871094 9.68484375 13.59992188 10.6171875 13.68359375 C13 14 13 14 15 15 C14.67 15.66 14.34 16.32 14 17 C10.37 17 6.74 17 3 17 C3 16.34 3 15.68 3 15 C2.54625 15.45375 2.0925 15.9075 1.625 16.375 C0.41666667 17.58333333 -0.79166667 18.79166667 -2 20 C-3.20615977 15.77844082 -2.59463546 13.98658864 -1 10 C-0.52962041 6.67666593 -0.24694165 3.34670919 0 0 Z " fill="#D85556" transform="translate(337,206)"/>
<path d="M0 0 C1.1875 1.6875 1.1875 1.6875 2 4 C0.625 6.75 0.625 6.75 -1 9 C1.31 9 3.62 9 6 9 C6 9.33 6 9.66 6 10 C4.02 10.66 2.04 11.32 0 12 C-0.33 13.98 -0.66 15.96 -1 18 C-0.01 18.33 0.98 18.66 2 19 C0.68 19 -0.64 19 -2 19 C-2.144375 18.071875 -2.28875 17.14375 -2.4375 16.1875 C-2.92100111 12.99274889 -2.92100111 12.99274889 -4 10 C-4.66 10 -5.32 10 -6 10 C-5.58578031 5.16743695 -3.53586014 3.17320782 0 0 Z " fill="#E2514D" transform="translate(93,160)"/>
<path d="M0 0 C0.66 0 1.32 0 2 0 C2 1.32 2 2.64 2 4 C2.66 4 3.32 4 4 4 C3.67 3.01 3.34 2.02 3 1 C4.32 1.66 5.64 2.32 7 3 C6.79375 3.556875 6.5875 4.11375 6.375 4.6875 C5.89304789 7.659538 6.73434972 9.31979941 8 12 C8.66 12 9.32 12 10 12 C10.66 13.65 11.32 15.3 12 17 C10.68 16.67 9.36 16.34 8 16 C8 15.34 8 14.68 8 14 C7.34 14 6.68 14 6 14 C6 13.34 6 12.68 6 12 C5.34 12 4.68 12 4 12 C-0.57142857 4.71428571 -0.57142857 4.71428571 0 0 Z " fill="#D64F50" transform="translate(121,216)"/>
<path d="M0 0 C2.38671875 0.625 2.38671875 0.625 5.01171875 3.1875 C5.69234375 4.3940625 5.69234375 4.3940625 6.38671875 5.625 C5.38671875 6.625 5.38671875 6.625 1.94921875 6.8125 C-1.61328125 6.625 -1.61328125 6.625 -3.61328125 4.625 C-4.60328125 5.285 -5.59328125 5.945 -6.61328125 6.625 C-6.94328125 5.635 -7.27328125 4.645 -7.61328125 3.625 C-8.60328125 2.965 -9.59328125 2.305 -10.61328125 1.625 C-6.70966753 -0.97740914 -4.52261213 -0.52818828 0 0 Z " fill="#DF3637" transform="translate(301.61328125,143.375)"/>
<path d="M0 0 C-0.33 0.66 -0.66 1.32 -1 2 C-1.77714355 1.99476318 -2.55428711 1.98952637 -3.35498047 1.98413086 C-6.86164549 1.96339844 -10.36829763 1.95035179 -13.875 1.9375 C-15.09832031 1.92912109 -16.32164062 1.92074219 -17.58203125 1.91210938 C-18.74863281 1.90888672 -19.91523438 1.90566406 -21.1171875 1.90234375 C-22.19597168 1.89710693 -23.27475586 1.89187012 -24.38623047 1.88647461 C-26.98232186 1.82116894 -26.98232186 1.82116894 -29 3 C-29 2.01 -29 1.02 -29 0 C-6.4477459 -1.66393443 -6.4477459 -1.66393443 0 0 Z " fill="#9AA5AB" transform="translate(311,384)"/>
<path d="M0 0 C0.43570312 0.38671875 0.87140625 0.7734375 1.3203125 1.171875 C5.05744652 4.43984501 8.8076016 7.34140589 13 10 C12.67 10.99 12.34 11.98 12 13 C9.03 12.505 9.03 12.505 6 12 C6 11.34 6 10.68 6 10 C5.0409375 9.8453125 5.0409375 9.8453125 4.0625 9.6875 C3.381875 9.460625 2.70125 9.23375 2 9 C1.67 8.01 1.34 7.02 1 6 C0.34 5.67 -0.32 5.34 -1 5 C-0.67 3.35 -0.34 1.7 0 0 Z " fill="#D54240" transform="translate(382,177)"/>
<path d="M0 0 C0.66 0 1.32 0 2 0 C1.67 2.97 1.34 5.94 1 9 C2.98 9 4.96 9 7 9 C7 9.33 7 9.66 7 10 C9.97 10.33 12.94 10.66 16 11 C16 11.33 16 11.66 16 12 C9.4 12 2.8 12 -4 12 C-2.66666667 8 -1.33333333 4 0 0 Z " fill="#3E5159" transform="translate(262,385)"/>
<path d="M0 0 C0.99 0 1.98 0 3 0 C4.55136786 2.46393719 5.03039129 3.68089146 4.75 6.625 C4 9 4 9 2 11 C1.01 11 0.02 11 -1 11 C-1.33 10.01 -1.66 9.02 -2 8 C-2.66 7.34 -3.32 6.68 -4 6 C-4 5.01 -4 4.02 -4 3 C-3.34 3 -2.68 3 -2 3 C-1.67 2.34 -1.34 1.68 -1 1 C-0.67 0.67 -0.34 0.34 0 0 Z " fill="#DE3A3C" transform="translate(412,206)"/>
<path d="M0 0 C2 3 2 3 5 12 C-1.93 12 -8.86 12 -16 12 C-16 11.67 -16 11.34 -16 11 C-11.05 10.67 -6.1 10.34 -1 10 C-0.67 8.02 -0.34 6.04 0 4 C-0.66 3.67 -1.32 3.34 -2 3 C-1.34 2.01 -0.68 1.02 0 0 Z " fill="#535F67" transform="translate(331,385)"/>
<path d="M0 0 C1.31871094 0.09861328 1.31871094 0.09861328 2.6640625 0.19921875 C4.81929011 0.36320346 6.97245447 0.55392655 9.125 0.75 C9.455 1.74 9.785 2.73 10.125 3.75 C9.37476563 3.65460938 8.62453125 3.55921875 7.8515625 3.4609375 C1.59811108 2.78361153 -3.62498862 2.74999697 -9.71875 4.375 C-12.09812415 4.7888042 -13.5996301 4.49466651 -15.875 3.75 C-10.58604384 -0.72393668 -6.73070012 -0.63860558 0 0 Z " fill="#C44B4C" transform="translate(348.875,176.25)"/>
<path d="M0 0 C2.97 0.99 5.94 1.98 9 3 C9 3.66 9 4.32 9 5 C4.67265609 7.22923777 1.71599818 6.92470553 -3 6 C-3 5.01 -3 4.02 -3 3 C-2.01 2.01 -1.02 1.02 0 0 Z " fill="#DC4548" transform="translate(392,166)"/>
<path d="M0 0 C0.66 0 1.32 0 2 0 C2 1.32 2 2.64 2 4 C2.66 4 3.32 4 4 4 C3.38545304 7.99455527 1.29353263 10.74466336 -1 14 C-1.33 13.34 -1.66 12.68 -2 12 C-3.65 12.66 -5.3 13.32 -7 14 C-7.66 13.01 -8.32 12.02 -9 11 C-6.36 10.34 -3.72 9.68 -1 9 C-0.67 6.03 -0.34 3.06 0 0 Z " fill="#354B55" transform="translate(136,269)"/>
<path d="M0 0 C1.07765625 0.00902344 2.1553125 0.01804688 3.265625 0.02734375 C4.08546875 0.03894531 4.9053125 0.05054688 5.75 0.0625 C2.74727182 2.06431879 0.14819024 2.92976992 -3.25 4.0625 C-4.24 4.7225 -5.23 5.3825 -6.25 6.0625 C-6.91 5.7325 -7.57 5.4025 -8.25 5.0625 C-8.25 4.4025 -8.25 3.7425 -8.25 3.0625 C-10.23 3.3925 -12.21 3.7225 -14.25 4.0625 C-9.55200171 0.20342998 -6.00681221 -0.06529144 0 0 Z " fill="#D44E4C" transform="translate(347.25,184.9375)"/>
<path d="M0 0 C5.28 0 10.56 0 16 0 C16.66 2.31 17.32 4.62 18 7 C16.02 7 14.04 7 12 7 C11.34 5.35 10.68 3.7 10 2 C6.7 1.67 3.4 1.34 0 1 C0 0.67 0 0.34 0 0 Z " fill="#06212C" transform="translate(238,248)"/>
<path d="M0 0 C1.98 0.495 1.98 0.495 4 1 C4.85350034 4.71443346 5.16320548 8.19061938 5.1875 12 C5.20167969 13.010625 5.21585937 14.02125 5.23046875 15.0625 C4.99304931 18.0885919 4.27324223 20.26227757 3 23 C1.43049319 18.18282141 2.07964565 13.20875586 2.2578125 8.21484375 C2.29787539 5.01652499 2.29787539 5.01652499 0.4921875 3.06640625 C-0.00023437 2.71449219 -0.49265625 2.36257812 -1 2 C-0.67 1.34 -0.34 0.68 0 0 Z " fill="#D25354" transform="translate(411,186)"/>
<path d="M0 0 C1.32 0.33 2.64 0.66 4 1 C4 1.99 4 2.98 4 4 C4.66 4 5.32 4 6 4 C8.20949832 8.41029783 8.2370648 12.48940324 8.125 17.3125 C8.11597656 18.05306641 8.10695313 18.79363281 8.09765625 19.55664062 C8.07424213 21.37123467 8.03837615 23.18566071 8 25 C7.67 25 7.34 25 7 25 C6.85304688 23.64068359 6.85304688 23.64068359 6.703125 22.25390625 C5.79344498 14.84315089 4.5549676 8.58669322 1 2 C0.67 1.34 0.34 0.68 0 0 Z " fill="#D46964" transform="translate(373,191)"/>
<path d="M0 0 C0 0.33 0 0.66 0 1 C-0.88042969 1.18175781 -1.76085937 1.36351562 -2.66796875 1.55078125 C-3.82941406 1.80214844 -4.99085938 2.05351562 -6.1875 2.3125 C-7.33605469 2.55613281 -8.48460937 2.79976562 -9.66796875 3.05078125 C-12.89817232 3.97099165 -15.18507363 5.21504669 -18 7 C-18.66 7 -19.32 7 -20 7 C-20.33 7.66 -20.66 8.32 -21 9 C-21 7.35 -21 5.7 -21 4 C-20.01 4 -19.02 4 -18 4 C-18 3.34 -18 2.68 -18 2 C-11.93184478 0.77100654 -6.20104812 -0.27560214 0 0 Z " fill="#D56263" transform="translate(145,178)"/>
<path d="M0 0 C0 0.33 0 0.66 0 1 C-7.59 1 -15.18 1 -23 1 C-18.78491643 -1.10754179 -16.15256084 -1.43860813 -11.5 -1.75 C-9.53546875 -1.89695312 -9.53546875 -1.89695312 -7.53125 -2.046875 C-4.23792172 -2.00315825 -2.69223357 -1.78566512 0 0 Z " fill="#48565D" transform="translate(407,396)"/>
<path d="M0 0 C0.33 0.99 0.66 1.98 1 3 C3.12472576 3.05386629 5.24983652 3.09273071 7.375 3.125 C9.15003906 3.15980469 9.15003906 3.15980469 10.9609375 3.1953125 C14.11153817 3.32866229 14.11153817 3.32866229 16 1 C16.33 2.65 16.66 4.3 17 6 C11.06 5.67 5.12 5.34 -1 5 C-0.67 3.35 -0.34 1.7 0 0 Z " fill="#08222B" transform="translate(93,391)"/>
<path d="M0 0 C3.16305105 2.65810615 4.54145622 5.85097893 6.25 9.5625 C6.79140625 10.71878906 7.3328125 11.87507813 7.890625 13.06640625 C8.25671875 14.03449219 8.6228125 15.00257813 9 16 C8.67 16.66 8.34 17.32 8 18 C4.35243335 15.5682889 4.26912796 14.06120946 3 10 C2.34 9.34 1.68 8.68 1 8 C1.33 7.34 1.66 6.68 2 6 C1.34 6 0.68 6 0 6 C0 4.02 0 2.04 0 0 Z " fill="#42535C" transform="translate(154,366)"/>
<path d="M0 0 C0.66 0.66 1.32 1.32 2 2 C5.08347826 2.16681109 5.08347826 2.16681109 8 2 C7.67 3.32 7.34 4.64 7 6 C1.06 5.67 -4.88 5.34 -11 5 C-11 4.67 -11 4.34 -11 4 C-5.555 3.01 -5.555 3.01 0 2 C0 1.34 0 0.68 0 0 Z " fill="#5A777F" transform="translate(126,259)"/>
<path d="M0 0 C0.33 0 0.66 0 1 0 C1 8.91 1 17.82 1 27 C0.67 27 0.34 27 0 27 C-0.144375 26.0925 -0.28875 25.185 -0.4375 24.25 C-0.91021851 21.18799484 -0.91021851 21.18799484 -1.5625 19 C-2.14981859 16.31511501 -2.06223458 13.7383216 -2 11 C-1.67 11 -1.34 11 -1 11 C-0.67 7.37 -0.34 3.74 0 0 Z " fill="#1B2D35" transform="translate(343,368)"/>
<path d="M0 0 C5.47112462 -0.36474164 5.47112462 -0.36474164 7.8125 1.25 C9.11258722 3.16591802 9.60856977 4.72970466 10 7 C8.35 7 6.7 7 5 7 C5 6.34 5 5.68 5 5 C4.34 5 3.68 5 3 5 C3 4.34 3 3.68 3 3 C2.01 2.67 1.02 2.34 0 2 C0 1.34 0 0.68 0 0 Z " fill="#304651" transform="translate(235,346)"/>
<path d="M0 0 C6.6 0 13.2 0 20 0 C19.67 0.66 19.34 1.32 19 2 C18.01 1.979375 17.02 1.95875 16 1.9375 C13.21314271 1.92619429 10.56901085 2.15910817 7.8125 2.5625 C4.66056654 2.92419728 2.89702057 3.08638271 0 2 C0 1.34 0 0.68 0 0 Z " fill="#0B1F26" transform="translate(188,274)"/>
<path d="M0 0 C-2.99126319 1.72206188 -5.10685713 2.24179923 -8.546875 2.1953125 C-9.81337891 2.18564453 -9.81337891 2.18564453 -11.10546875 2.17578125 C-11.97816406 2.15902344 -12.85085937 2.14226562 -13.75 2.125 C-15.08224609 2.11146484 -15.08224609 2.11146484 -16.44140625 2.09765625 C-18.62788058 2.07414577 -20.81380094 2.04128499 -23 2 C-22 0 -22 0 -18.25 -1.25 C-12.0333892 -2.5555887 -6.14132948 -1.2339611 0 0 Z " fill="#C85B5B" transform="translate(157,186)"/>
<path d="M0 0 C0.33 0.99 0.66 1.98 1 3 C0.01 3.33 -0.98 3.66 -2 4 C-2.33 4.66 -2.66 5.32 -3 6 C-4.65 5.67 -6.3 5.34 -8 5 C-8.33 4.01 -8.66 3.02 -9 2 C-5.5647952 -0.29013653 -4.014669 -0.17842973 0 0 Z " fill="#D94546" transform="translate(405,173)"/>
<path d="M0 0 C0.33 0.99 0.66 1.98 1 3 C0.67 3.66 0.34 4.32 0 5 C4.95 5 9.9 5 15 5 C15 5.66 15 6.32 15 7 C9.39 7 3.78 7 -2 7 C-2 5.02 -2 3.04 -2 1 C-1.34 0.67 -0.68 0.34 0 0 Z " fill="#A1AFB5" transform="translate(290,363)"/>
<path d="M0 0 C2.14336161 3.4766338 2.21277626 6.21229195 2.125 10.25 C2.10695313 11.32765625 2.08890625 12.4053125 2.0703125 13.515625 C2.04710938 14.33546875 2.02390625 15.1553125 2 16 C1.34 16.33 0.68 16.66 0 17 C-1.13350534 19.01669827 -1.13350534 19.01669827 -2 21 C-3.15949276 17.52152171 -2.4960739 15.7838965 -1.546875 12.33984375 C-0.5982749 8.28119047 -0.32301435 4.14818426 0 0 Z " fill="#DA6262" transform="translate(84,166)"/>
<path d="M0 0 C0.66 0 1.32 0 2 0 C2 0.66 2 1.32 2 2 C3.32 2.33 4.64 2.66 6 3 C5.21625 3.20625 4.4325 3.4125 3.625 3.625 C0.69083714 4.80676612 0.69083714 4.80676612 -0.3125 8.125 C-0.539375 9.07375 -0.76625 10.0225 -1 11 C-2.32 10.67 -3.64 10.34 -5 10 C-4.6875 7.625 -4.6875 7.625 -4 5 C-3.01 4.34 -2.02 3.68 -1 3 C-0.67 2.01 -0.34 1.02 0 0 Z " fill="#D43C3D" transform="translate(382,170)"/>
<path d="M0 0 C3.125 -0.4375 3.125 -0.4375 7 0 C9.38682039 2.06581634 11.20049043 4.41608882 13 7 C12.34 7.66 11.68 8.32 11 9 C10.01 9 9.02 9 8 9 C7.4121875 7.2984375 7.4121875 7.2984375 6.8125 5.5625 C5.41389118 1.79660949 5.41389118 1.79660949 2.3125 1.0625 C1.1678125 1.0315625 1.1678125 1.0315625 0 1 C0 0.67 0 0.34 0 0 Z " fill="#485B63" transform="translate(137,384)"/>
<path d="M0 0 C-0.33 0.99 -0.66 1.98 -1 3 C-5.62 3.33 -10.24 3.66 -15 4 C-15 3.34 -15 2.68 -15 2 C-13.06302033 1.66365624 -11.12539514 1.33102835 -9.1875 1 C-7.56908203 0.7215625 -7.56908203 0.7215625 -5.91796875 0.4375 C-3 0 -3 0 0 0 Z " fill="#385867" transform="translate(238,395)"/>
<path d="M0 0 C0.66 1.32 1.32 2.64 2 4 C2.66 3.67 3.32 3.34 4 3 C3.979375 3.78375 3.95875 4.5675 3.9375 5.375 C3.81315937 7.98114961 3.81315937 7.98114961 5 10 C4.67 10.66 4.34 11.32 4 12 C2.0625 11.5 2.0625 11.5 0 10 C-0.97077399 6.58055728 -1.61815467 3.23630934 0 0 Z " fill="#D24245" transform="translate(82,198)"/>
<path d="M0 0 C4.17301615 -0.08182385 7.93157798 0.07007497 12 1 C12.66 1 13.32 1 14 1 C14 1.99 14 2.98 14 4 C9.13947556 5.51891389 5.71574884 4.57191628 1 3 C0.67 2.01 0.34 1.02 0 0 Z " fill="#D95757" transform="translate(384,171)"/>
<path d="M0 0 C4.51478398 0.53115106 7.34666857 2.36620292 11 5 C7.52674819 6.1577506 4.63932552 6.06866652 1 6 C0.67 4.02 0.34 2.04 0 0 Z " fill="#D75658" transform="translate(292,138)"/>
<path d="M0 0 C2.21391761 2.21391761 3.03968765 4.00263901 4.25 6.875 C4.62640625 7.73867188 5.0028125 8.60234375 5.390625 9.4921875 C6 12 6 12 5.109375 14.3203125 C4.74328125 14.87460937 4.3771875 15.42890625 4 16 C3 13 3 13 3 10 C2.34 10 1.68 10 1 10 C0.22157062 6.59437148 -0.09978121 3.49234244 0 0 Z " fill="#364A50" transform="translate(323,367)"/>
<path d="M0 0 C0.33 0 0.66 0 1 0 C1.33 5.28 1.66 10.56 2 16 C1.01 15.67 0.02 15.34 -1 15 C-2.66621616 14.96125079 -4.33394172 14.9549714 -6 15 C-5.195625 14.195625 -4.39125 13.39125 -3.5625 12.5625 C-0.31186942 8.73336737 -0.11926137 4.8788744 0 0 Z " fill="#D54A51" transform="translate(358,205)"/>
<path d="M0 0 C0 0.66 0 1.32 0 2 C-0.69867188 2.13277344 -1.39734375 2.26554687 -2.1171875 2.40234375 C-3.02726563 2.57894531 -3.93734375 2.75554687 -4.875 2.9375 C-5.77992188 3.11152344 -6.68484375 3.28554687 -7.6171875 3.46484375 C-9.99956317 3.89963701 -9.99956317 3.89963701 -12 5 C-14.625 4.0625 -14.625 4.0625 -17 3 C-17 2.67 -17 2.34 -17 2 C-11.19233704 0.4943096 -6.0018137 -0.21824777 0 0 Z " fill="#CF4F51" transform="translate(186,121)"/>
<path d="M0 0 C0.66 0.66 1.32 1.32 2 2 C0.125 7.75 0.125 7.75 -1 10 C-2.32 9.67 -3.64 9.34 -5 9 C-4.5504955 7.68445015 -4.09010284 6.37261642 -3.625 5.0625 C-3.36976563 4.33160156 -3.11453125 3.60070312 -2.8515625 2.84765625 C-2 1 -2 1 0 0 Z " fill="#274049" transform="translate(268,374)"/>
<path d="M0 0 C0.57234375 0.22558594 1.1446875 0.45117188 1.734375 0.68359375 C1.734375 1.67359375 1.734375 2.66359375 1.734375 3.68359375 C0.300935 4.21549916 -1.13757867 4.73374633 -2.578125 5.24609375 C-3.77888672 5.68115234 -3.77888672 5.68115234 -5.00390625 6.125 C-7.265625 6.68359375 -7.265625 6.68359375 -10.265625 5.68359375 C-9.02827516 4.64746342 -7.77517863 3.63011573 -6.515625 2.62109375 C-5.81953125 2.05261719 -5.1234375 1.48414063 -4.40625 0.8984375 C-2.265625 -0.31640625 -2.265625 -0.31640625 0 0 Z " fill="#3B4D58" transform="translate(243.265625,372.31640625)"/>
<path d="M0 0 C4.28577219 -0.36539443 6.34492062 0.51576402 9.8125 3 C10.60269531 3.556875 11.39289063 4.11375 12.20703125 4.6875 C12.79871094 5.120625 13.39039063 5.55375 14 6 C12.02 6.99 12.02 6.99 10 8 C9.67 6.68 9.34 5.36 9 4 C7.35 3.67 5.7 3.34 4 3 C4 2.34 4 1.68 4 1 C2.02 1.99 2.02 1.99 0 3 C0 2.01 0 1.02 0 0 Z " fill="#D65859" transform="translate(353,186)"/>
<path d="M0 0 C0.96070434 2.88211302 1.10581883 4.69850044 1.0625 7.6875 C1.05347656 8.49574219 1.04445313 9.30398437 1.03515625 10.13671875 C1.02355469 10.75160156 1.01195312 11.36648437 1 12 C-0.98 12 -2.96 12 -5 12 C-4.67 10.35 -4.34 8.7 -4 7 C-3.01 7 -2.02 7 -1 7 C-0.67 4.69 -0.34 2.38 0 0 Z " fill="#E05353" transform="translate(314,207)"/>
<path d="M0 0 C4.86896303 0.59619955 9.32790951 1.56976822 14 3 C13.34 3.66 12.68 4.32 12 5 C11.01 5 10.02 5 9 5 C9 4.34 9 3.68 9 3 C6.03 3 3.06 3 0 3 C0 2.01 0 1.02 0 0 Z " fill="#D65A5B" transform="translate(376,162)"/>
<path d="M0 0 C1.98 0.66 3.96 1.32 6 2 C5.67 2.99 5.34 3.98 5 5 C4.34 5 3.68 5 3 5 C3 5.66 3 6.32 3 7 C1.35 7.66 -0.3 8.32 -2 9 C-2 8.01 -2 7.02 -2 6 C-1.01 5.67 -0.02 5.34 1 5 C0.67 3.35 0.34 1.7 0 0 Z " fill="#DE6162" transform="translate(161,225)"/>
<path d="M0 0 C1.5 1.375 1.5 1.375 3 3 C3 3.66 3 4.32 3 5 C3.66 5 4.32 5 5 5 C5.66 6.65 6.32 8.3 7 10 C5.68 9.67 4.36 9.34 3 9 C3 8.34 3 7.68 3 7 C2.34 7 1.68 7 1 7 C1 6.34 1 5.68 1 5 C0.34 5 -0.32 5 -1 5 C-1.33 4.01 -1.66 3.02 -2 2 C-1.34 2 -0.68 2 0 2 C0 1.34 0 0.68 0 0 Z " fill="#D86465" transform="translate(126,223)"/>
<path d="M0 0 C0.66 0 1.32 0 2 0 C2.53229326 1.26607607 3.05044544 2.53810412 3.5625 3.8125 C3.85253906 4.52019531 4.14257812 5.22789062 4.44140625 5.95703125 C5 8 5 8 4 11 C3.67 10.01 3.34 9.02 3 8 C2.01 7.67 1.02 7.34 0 7 C-1.125 2.25 -1.125 2.25 0 0 Z " fill="#32464D" transform="translate(314,348)"/>
<path d="M0 0 C2.50356732 3.75535098 1.9608592 4.86889414 1.125 9.1875 C0.92132813 10.27417969 0.71765625 11.36085937 0.5078125 12.48046875 C0.34023437 13.31191406 0.17265625 14.14335937 0 15 C-0.66 15 -1.32 15 -2 15 C-2.19392201 9.47322267 -1.7479503 5.24385089 0 0 Z " fill="#D55856" transform="translate(122,200)"/>
<path d="M0 0 C3.3 1.65 6.6 3.3 10 5 C7.09907498 6.93395001 6.10325263 7.30131941 2.8125 7.625 C1.554375 7.74875 0.29625 7.8725 -1 8 C-1 7.34 -1 6.68 -1 6 C0.32 5.34 1.64 4.68 3 4 C2.01 3.34 1.02 2.68 0 2 C0 1.34 0 0.68 0 0 Z " fill="#D65C5C" transform="translate(304,144)"/>
<path d="M0 0 C3 3.625 3 3.625 3 7 C0.69 6.67 -1.62 6.34 -4 6 C-2.84826645 3.53199953 -1.95216435 1.95216435 0 0 Z " fill="#D7484E" transform="translate(155,215)"/>
<path d="M0 0 C-0.875 4.75 -0.875 4.75 -2 7 C-2.99 6.67 -3.98 6.34 -5 6 C-4.67 4.35 -4.34 2.7 -4 1 C-4.66 0.67 -5.32 0.34 -6 0 C-2.25 -1.125 -2.25 -1.125 0 0 Z " fill="#D83738" transform="translate(409,177)"/>
<path d="M0 0 C2 1 2 1 2.8515625 3.28515625 C3.10679687 4.20167969 3.36203125 5.11820312 3.625 6.0625 C3.88539063 6.98160156 4.14578125 7.90070313 4.4140625 8.84765625 C4.60742188 9.55792969 4.80078125 10.26820313 5 11 C3.35 10.67 1.7 10.34 0 10 C0 6.7 0 3.4 0 0 Z " fill="#31464D" transform="translate(138,327)"/>
<path d="M0 0 C7.425 0.99 7.425 0.99 15 2 C10.14424 4.42788 7.13070956 4.52021024 2 3 C2 2.34 2 1.68 2 1 C1.34 0.67 0.68 0.34 0 0 Z " fill="#DA6E70" transform="translate(340,155)"/>
<path d="M0 0 C0.66 0 1.32 0 2 0 C3.28571429 8.57142857 3.28571429 8.57142857 2 12 C1.34 12 0.68 12 0 12 C0 8.04 0 4.08 0 0 Z " fill="#55616A" transform="translate(188,356)"/>
<path d="M0 0 C0.66 0.33 1.32 0.66 2 1 C1.25 5.75 1.25 5.75 -1 8 C-1.99 8 -2.98 8 -4 8 C-3.67 6.35 -3.34 4.7 -3 3 C-2.01 3.33 -1.02 3.66 0 4 C0 2.68 0 1.36 0 0 Z " fill="#D05858" transform="translate(415,209)"/>
<path d="M0 0 C0.99 0 1.98 0 3 0 C2.88601335 1.62580966 2.75844341 3.25067157 2.625 4.875 C2.52058594 6.23238281 2.52058594 6.23238281 2.4140625 7.6171875 C2 10 2 10 0 12 C-0.19401633 10.18818595 -0.38004375 8.37551468 -0.5625 6.5625 C-0.66691406 5.55316406 -0.77132813 4.54382813 -0.87890625 3.50390625 C-0.91886719 2.67761719 -0.95882813 1.85132813 -1 1 C-0.67 0.67 -0.34 0.34 0 0 Z " fill="#D55B59" transform="translate(371,210)"/>
<path d="M0 0 C0.99 0 1.98 0 3 0 C3 2.31 3 4.62 3 7 C2.01 7 1.02 7 0 7 C-0.33 7.66 -0.66 8.32 -1 9 C-0.67 6.03 -0.34 3.06 0 0 Z " fill="#E13634" transform="translate(123,203)"/>
<path d="M0 0 C0.66 0.99 1.32 1.98 2 3 C0.35 4.65 -1.3 6.3 -3 8 C-3.99 7.67 -4.98 7.34 -6 7 C-6 6.34 -6 5.68 -6 5 C-5.34 5 -4.68 5 -4 5 C-4 4.34 -4 3.68 -4 3 C-3.34 3 -2.68 3 -2 3 C-2 2.34 -2 1.68 -2 1 C-1.34 0.67 -0.68 0.34 0 0 Z " fill="#D65352" transform="translate(332,189)"/>
<path d="M0 0 C-0.33 1.65 -0.66 3.3 -1 5 C-1.66 4.34 -2.32 3.68 -3 3 C-3.99 3.33 -4.98 3.66 -6 4 C-6.99 3.01 -7.98 2.02 -9 1 C-5.57367167 -0.61798838 -3.61944899 -1.34053666 0 0 Z " fill="#DA5356" transform="translate(98,155)"/>
<path d="M0 0 C0.99 0 1.98 0 3 0 C3 0.66 3 1.32 3 2 C3.66 2 4.32 2 5 2 C5.33 3.32 5.66 4.64 6 6 C0.25 4.125 0.25 4.125 -2 3 C-1 1 -1 1 0 0 Z " fill="#3E525A" transform="translate(203,389)"/>
<path d="M0 0 C2.97 0.495 2.97 0.495 6 1 C6 1.66 6 2.32 6 3 C5.34 3 4.68 3 4 3 C4 3.66 4 4.32 4 5 C2.35 5.33 0.7 5.66 -1 6 C-0.67 4.02 -0.34 2.04 0 0 Z " fill="#203640" transform="translate(244,346)"/>
<path d="M0 0 C0.33 0.66 0.66 1.32 1 2 C0.67 2.66 0.34 3.32 0 4 C0.66 4.33 1.32 4.66 2 5 C-0.31 5.66 -2.62 6.32 -5 7 C-5.33 6.01 -5.66 5.02 -6 4 C-4.02 2.68 -2.04 1.36 0 0 Z " fill="#DB4E4D" transform="translate(122,144)"/>
<path d="M0 0 C1.58323688 -0.027193 3.16661062 -0.04648306 4.75 -0.0625 C6.07257813 -0.07990234 6.07257813 -0.07990234 7.421875 -0.09765625 C9.83102137 -0.00640071 11.7569138 0.11590071 14 1 C14.33 1.99 14.66 2.98 15 4 C10.05 3.01 5.1 2.02 0 1 C0 0.67 0 0.34 0 0 Z " fill="#D8666C" transform="translate(246,134)"/>
<path d="M0 0 C2.97 0.33 5.94 0.66 9 1 C5 3 5 3 2 4 C2 4.66 2 5.32 2 6 C1.34 6 0.68 6 0 6 C0 4.02 0 2.04 0 0 Z " fill="#2E3F53" transform="translate(341,328)"/>
<path d="M0 0 C2.89855422 1.29935189 4.85663278 2.66178122 7 5 C7.66 5.66 8.32 6.32 9 7 C8.34 7 7.68 7 7 7 C6.67 7.66 6.34 8.32 6 9 C4.99406757 7.8803014 3.9954151 6.7540588 3 5.625 C2.443125 4.99851563 1.88625 4.37203125 1.3125 3.7265625 C0 2 0 2 0 0 Z " fill="#D87171" transform="translate(324,222)"/>
<path d="M0 0 C1.32 0.66 2.64 1.32 4 2 C0.93466836 3.53266582 -2.26754272 3.10276471 -5.625 3.0625 C-6.33140625 3.05798828 -7.0378125 3.05347656 -7.765625 3.04882812 C-9.51045275 3.03703875 -11.255237 3.01910324 -13 3 C-13 2.67 -13 2.34 -13 2 C-12.14535156 1.93941406 -11.29070312 1.87882812 -10.41015625 1.81640625 C-8.75306641 1.69072266 -8.75306641 1.69072266 -7.0625 1.5625 C-5.96035156 1.48128906 -4.85820313 1.40007812 -3.72265625 1.31640625 C-1.08890097 1.29581916 -1.08890097 1.29581916 0 0 Z " fill="#02141B" transform="translate(109,314)"/>
<path d="M0 0 C0.66 0 1.32 0 2 0 C1.67 4.62 1.34 9.24 1 14 C0.67 14 0.34 14 0 14 C0 11.03 0 8.06 0 5 C-0.66 5 -1.32 5 -2 5 C-2 4.01 -2 3.02 -2 2 C-1.34 2 -0.68 2 0 2 C0 1.34 0 0.68 0 0 Z " fill="#E37F7D" transform="translate(156,200)"/>
<path d="M0 0 C1.98 0 3.96 0 6 0 C6 0.66 6 1.32 6 2 C6.99 2.33 7.98 2.66 9 3 C6.36 2.67 3.72 2.34 1 2 C1 2.99 1 3.98 1 5 C0.34 5 -0.32 5 -1 5 C-0.67 3.35 -0.34 1.7 0 0 Z " fill="#D34F4E" transform="translate(222,129)"/>
<path d="M0 0 C1.99097846 2.98646769 2.94124926 5.59687262 4 9 C3.01 8.67 2.02 8.34 1 8 C1 7.34 1 6.68 1 6 C0.34 6 -0.32 6 -1 6 C-1.33 4.68 -1.66 3.36 -2 2 C-1.34 2 -0.68 2 0 2 C0 1.34 0 0.68 0 0 Z " fill="#3F5059" transform="translate(163,385)"/>
<path d="M0 0 C1.32 0.33 2.64 0.66 4 1 C3.01 2.98 2.02 4.96 1 7 C-0.32 6.67 -1.64 6.34 -3 6 C-2.34 5.34 -1.68 4.68 -1 4 C-0.3574765 1.93125966 -0.3574765 1.93125966 0 0 Z " fill="#082834" transform="translate(212,328)"/>
<path d="M0 0 C0.33 0 0.66 0 1 0 C1.05437607 1.58294782 1.09296271 3.16644256 1.125 4.75 C1.14820313 5.63171875 1.17140625 6.5134375 1.1953125 7.421875 C0.99139502 10.1135858 0.36551721 11.69904974 -1 14 C-2.12029814 8.51053913 -1.79217969 5.16569441 0 0 Z " fill="#4D5E66" transform="translate(156,267)"/>
<path d="M0 0 C0 0.66 0 1.32 0 2 C0.66 2.33 1.32 2.66 2 3 C-0.97 5.475 -0.97 5.475 -4 8 C-4.6875 5.6875 -4.6875 5.6875 -5 3 C-3.40083326 0.79162689 -2.76966516 0 0 0 Z " fill="#DF585B" transform="translate(343,198)"/>
<path d="M0 0 C1.77007714 -0.08114106 3.54122098 -0.13925505 5.3125 -0.1875 C6.29863281 -0.22230469 7.28476563 -0.25710937 8.30078125 -0.29296875 C11 0 11 0 12.85546875 1.51171875 C13.23316406 2.00285156 13.61085937 2.49398437 14 3 C9.30976546 2.43393721 4.65499974 1.81462495 0 1 C0 0.67 0 0.34 0 0 Z " fill="#D16969" transform="translate(148,178)"/>
<path d="M0 0 C0.33 0 0.66 0 1 0 C1 2.64 1 5.28 1 8 C2.32 8.33 3.64 8.66 5 9 C2.69 8.67 0.38 8.34 -2 8 C-2.20086443 4.28400809 -2.1519437 3.22791555 0 0 Z " fill="#D23137" transform="translate(90,171)"/>
<path d="M0 0 C-1.62339805 1.70884005 -3.29319053 3.37446717 -5 5 C-5.66 5 -6.32 5 -7 5 C-7.33 3.68 -7.66 2.36 -8 1 C-3.375 -1.125 -3.375 -1.125 0 0 Z " fill="#07222E" transform="translate(382,361)"/>
<path d="M0 0 C4.05606165 0.46800711 7.46588679 0.87953208 11 3 C9.02 3.66 7.04 4.32 5 5 C4.34 4.01 3.68 3.02 3 2 C2.01 1.34 1.02 0.68 0 0 Z " fill="#4F636A" transform="translate(381,328)"/>
<path d="M0 0 C3.3 0.66 6.6 1.32 10 2 C10 2.33 10 2.66 10 3 C6.04 3 2.08 3 -2 3 C-1.34 2.01 -0.68 1.02 0 0 Z " fill="#34464C" transform="translate(286,314)"/>
<path d="M0 0 C0.391875 0.515625 0.78375 1.03125 1.1875 1.5625 C0.8575 2.2225 0.5275 2.8825 0.1875 3.5625 C-2.4525 2.9025 -5.0925 2.2425 -7.8125 1.5625 C-6.8125 -0.4375 -6.8125 -0.4375 -4.4375 -1.25 C-1.8125 -1.4375 -1.8125 -1.4375 0 0 Z " fill="#D35150" transform="translate(269.8125,137.4375)"/>
<path d="M0 0 C1.9451 2.91765 2.45276317 4.62537285 3 8 C2.01 8.33 1.02 8.66 0 9 C0 7.35 0 5.7 0 4 C-0.66 3.67 -1.32 3.34 -2 3 C-1.34 2.01 -0.68 1.02 0 0 Z " fill="#45555F" transform="translate(331,385)"/>
<path d="M0 0 C1.32 0.99 2.64 1.98 4 3 C3.67 3.66 3.34 4.32 3 5 C2.01 5 1.02 5 0 5 C-0.33 6.32 -0.66 7.64 -1 9 C-2.0326802 6.21176345 -2.04509293 5.1322726 -1.0625 2.25 C-0.711875 1.5075 -0.36125 0.765 0 0 Z " fill="#3C4F58" transform="translate(281,339)"/>
<path d="M0 0 C3.26954202 0.56371414 4.82575883 1.49962266 7 4 C4 5 4 5 1.8125 4.0625 C1.214375 3.711875 0.61625 3.36125 0 3 C0 2.01 0 1.02 0 0 Z " fill="#3E5059" transform="translate(242,330)"/>
<path d="M0 0 C4.875 4.625 4.875 4.625 6 8 C4.68 8 3.36 8 2 8 C1.34 5.36 0.68 2.72 0 0 Z " fill="#475860" transform="translate(254,248)"/>
<path d="M0 0 C0.66 0 1.32 0 2 0 C2.33 2.31 2.66 4.62 3 7 C2.01 7.33 1.02 7.66 0 8 C-0.66 7.67 -1.32 7.34 -2 7 C-1.34 4.69 -0.68 2.38 0 0 Z " fill="#D65454" transform="translate(371,200)"/>
<path d="M0 0 C1.98 0.99 3.96 1.98 6 3 C6 3.33 6 3.66 6 4 C3.03 4 0.06 4 -3 4 C-2.01 2.68 -1.02 1.36 0 0 Z " fill="#D13233" transform="translate(346,196)"/>
<path d="M0 0 C2.875 0.1875 2.875 0.1875 6 1 C7.375 3.5625 7.375 3.5625 8 6 C5 6 5 6 3.61328125 4.6875 C2.40885417 3.125 1.20442708 1.5625 0 0 Z " fill="#DA5E5E" transform="translate(166,184)"/>
<path d="M0 0 C1.98 1.65 3.96 3.3 6 5 C2.98968256 5.93423645 2.13349732 6.04449911 -1 5 C-0.67 3.35 -0.34 1.7 0 0 Z " fill="#D95457" transform="translate(382,177)"/>
<path d="M0 0 C2.475 0.99 2.475 0.99 5 2 C3.375 3.625 3.375 3.625 1 5 C-2.25 4.1875 -2.25 4.1875 -5 3 C-5 2.67 -5 2.34 -5 2 C-3.35 1.67 -1.7 1.34 0 1 C0 0.67 0 0.34 0 0 Z " fill="#D74B4B" transform="translate(275,139)"/>
<path d="M0 0 C1.32 0 2.64 0 4 0 C4.33 1.32 4.66 2.64 5 4 C3.02 4.33 1.04 4.66 -1 5 C-0.67 3.35 -0.34 1.7 0 0 Z " fill="#DF5C5B" transform="translate(174,130)"/>
<path d="M0 0 C5.445 1.485 5.445 1.485 11 3 C11 3.33 11 3.66 11 4 C3.57142857 4.28571429 3.57142857 4.28571429 0 2 C0 1.34 0 0.68 0 0 Z " fill="#D46467" transform="translate(263,125)"/>
<path d="M0 0 C0.103125 0.639375 0.20625 1.27875 0.3125 1.9375 C0.539375 2.618125 0.76625 3.29875 1 4 C1.99 4.33 2.98 4.66 4 5 C3.34 6.32 2.68 7.64 2 9 C0.68 7.02 -0.64 5.04 -2 3 C-1 1 -1 1 0 0 Z " fill="#4A5C63" transform="translate(379,385)"/>
<path d="M0 0 C1.32 0.33 2.64 0.66 4 1 C5.125 6.625 5.125 6.625 4 10 C2.68 6.7 1.36 3.4 0 0 Z " fill="#556873" transform="translate(129,352)"/>
<path d="M0 0 C1.32 0 2.64 0 4 0 C4.66 1.65 5.32 3.3 6 5 C4.02 4.34 2.04 3.68 0 3 C0 2.01 0 1.02 0 0 Z " fill="#D66263" transform="translate(333,230)"/>
<path d="M0 0 C2.0625 0.4375 2.0625 0.4375 4 1 C3.34 2.65 2.68 4.3 2 6 C1.01 6 0.02 6 -1 6 C-1.042721 4.33388095 -1.04063832 2.66617115 -1 1 C-0.67 0.67 -0.34 0.34 0 0 Z " fill="#CF332F" transform="translate(82,194)"/>
<path d="M0 0 C0 0.66 0 1.32 0 2 C-3.96 1.67 -7.92 1.34 -12 1 C-12 0.67 -12 0.34 -12 0 C-7.66726186 -0.92844389 -4.33273814 -0.92844389 0 0 Z " fill="#D56C6B" transform="translate(245,132)"/>
<path d="M0 0 C-3.99560608 2.83022097 -7.42737323 1.76210446 -12 1 C-8.00439392 -1.83022097 -4.57262677 -0.76210446 0 0 Z " fill="#D75656" transform="translate(157,186)"/>
<path d="M0 0 C0.94875 0.04125 1.8975 0.0825 2.875 0.125 C3.205 1.115 3.535 2.105 3.875 3.125 C0.905 2.795 -2.065 2.465 -5.125 2.125 C-3.125 0.125 -3.125 0.125 0 0 Z " fill="#D46162" transform="translate(355.125,176.875)"/>
<path d="M0 0 C2 2 2 2 2 4 C-0.64 4.33 -3.28 4.66 -6 5 C-4.62308038 2.24616077 -2.63279958 1.48516899 0 0 Z " fill="#D35F5E" transform="translate(339,176)"/>
<path d="M0 0 C2.4375 1.1875 2.4375 1.1875 3.4375 3.1875 C0.4675 3.1875 -2.5025 3.1875 -5.5625 3.1875 C-5.2325 2.1975 -4.9025 1.2075 -4.5625 0.1875 C-2.5625 -0.8125 -2.5625 -0.8125 0 0 Z " fill="#DE696E" transform="translate(403.5625,170.8125)"/>
<path d="M0 0 C3.375 -0.125 3.375 -0.125 7 0 C7.66 0.66 8.32 1.32 9 2 C6.08517222 2.80967438 4.53886783 3.21845993 1.6875 2.0625 C1.130625 1.711875 0.57375 1.36125 0 1 C0 0.67 0 0.34 0 0 Z " fill="#5E6C72" transform="translate(213,396)"/>
<path d="M0 0 C1.32 0.66 2.64 1.32 4 2 C4 2.66 4 3.32 4 4 C1.69 3.67 -0.62 3.34 -3 3 C-2.01 2.01 -1.02 1.02 0 0 Z " fill="#263A3F" transform="translate(164,393)"/>
<path d="M0 0 C0.99 0.66 1.98 1.32 3 2 C3 2.66 3 3.32 3 4 C2.34 4 1.68 4 1 4 C1 4.66 1 5.32 1 6 C0.34 6 -0.32 6 -1 6 C-1.33 4.35 -1.66 2.7 -2 1 C-1.34 0.67 -0.68 0.34 0 0 Z " fill="#354F5A" transform="translate(212,345)"/>
<path d="M0 0 C0.66 0 1.32 0 2 0 C1.67 1.32 1.34 2.64 1 4 C0.01 4 -0.98 4 -2 4 C-2 4.66 -2 5.32 -2 6 C-2.66 6 -3.32 6 -4 6 C-2.84826645 3.53199953 -1.95216435 1.95216435 0 0 Z " fill="#6C7B81" transform="translate(199,334)"/>
<path d="M0 0 C1.32 0.33 2.64 0.66 4 1 C4.33 3.31 4.66 5.62 5 8 C2.74754119 5.31158141 1.11786042 3.35358125 0 0 Z " fill="#505F68" transform="translate(129,304)"/>
<path d="M0 0 C2.97 0 5.94 0 9 0 C9 0.33 9 0.66 9 1 C7.906875 1.103125 6.81375 1.20625 5.6875 1.3125 C2.14440371 1.97307727 1.06756277 2.2027092 -1 5 C-0.67 3.35 -0.34 1.7 0 0 Z " fill="#041922" transform="translate(114,295)"/>
<path d="M0 0 C0.66 0 1.32 0 2 0 C2 1.32 2 2.64 2 4 C2.66 4 3.32 4 4 4 C3.67 5.32 3.34 6.64 3 8 C2.01 7.67 1.02 7.34 0 7 C0 4.69 0 2.38 0 0 Z " fill="#446469" transform="translate(136,269)"/>
<path d="M0 0 C1.98 0 3.96 0 6 0 C6 0.99 6 1.98 6 3 C3.03 2.505 3.03 2.505 0 2 C0 1.34 0 0.68 0 0 Z " fill="#DA575B" transform="translate(135,233)"/>
<path d="M0 0 C3.81538462 2.46153846 3.81538462 2.46153846 4.75 5.1875 C4.8325 5.785625 4.915 6.38375 5 7 C4.01 7.495 4.01 7.495 3 8 C3 7.34 3 6.68 3 6 C2.34 6 1.68 6 1 6 C0.67 4.02 0.34 2.04 0 0 Z " fill="#D3666E" transform="translate(166,193)"/>
</svg>
